<svg xmlns="http://www.w3.org/2000/svg" width="36" height="36" viewBox="0 0 36 36">
  <g id="Alert" transform="translate(-1738 -279)">
    <g id="Rectangle_31" data-name="Rectangle 31" transform="translate(1738 279)" fill="none" stroke="#fff" stroke-width="1">
      <rect width="36" height="36" rx="6" stroke="none"/>
      <rect x="0.5" y="0.5" width="35" height="35" rx="5.5" fill="none"/>
    </g>
    <path id="Subtraction_1" data-name="Subtraction 1" d="M-4116.194-6645h-19.611a2.969,2.969,0,0,1-2.6-1.5,2.97,2.97,0,0,1,0-3l9.806-17a2.97,2.97,0,0,1,2.6-1.5,2.97,2.97,0,0,1,2.6,1.5l9.805,17a2.971,2.971,0,0,1,0,3A2.969,2.969,0,0,1-4116.194-6645Zm-9.533-7.247a1.154,1.154,0,0,0-.847.348,1.133,1.133,0,0,0-.348.835,1.147,1.147,0,0,0,.348.843,1.171,1.171,0,0,0,.847.35,1.125,1.125,0,0,0,.585-.161,1.282,1.282,0,0,0,.435-.433,1.164,1.164,0,0,0,.172-.6,1.151,1.151,0,0,0-.363-.835A1.162,1.162,0,0,0-4125.727-6652.248Zm-1.11-7.934.2,7.129h1.819l.194-7.129Z" transform="translate(5882 6953)" fill="#fff"/>
  </g>
</svg>
