<svg xmlns="http://www.w3.org/2000/svg" width="36" height="36" viewBox="0 0 36 36">
  <g id="City" transform="translate(23 -21)">
    <g id="Rectangle_34" data-name="Rectangle 34" transform="translate(-23 21)" fill="none" stroke="#00b26b" stroke-width="1">
      <rect width="36" height="36" rx="6" stroke="none"/>
      <rect x="0.5" y="0.5" width="35" height="35" rx="5.5" fill="none"/>
    </g>
    <g id="noun-city-7948156" transform="translate(-29.599 20.752)">
      <path id="Path_168" data-name="Path 168" d="M21.13,8.332a.5.5,0,0,0-.5.5v1.487h-.991A1.494,1.494,0,0,0,18.155,11.8v.5a1.5,1.5,0,0,0-1.487,1.487V26.677a1.5,1.5,0,0,0,1.487,1.487H31.046a1.5,1.5,0,0,0,1.487-1.487V17.753a1.5,1.5,0,0,0-1.488-1.487H25.592V13.786A1.5,1.5,0,0,0,24.105,12.3v-.5a1.5,1.5,0,0,0-1.487-1.487h-.992V8.828a.5.5,0,0,0-.5-.5Zm-1.487,2.975h2.975a.488.488,0,0,1,.5.5v.5H19.146v-.5a.489.489,0,0,1,.5-.5Zm-.5,3.967h3.967a.5.5,0,0,1,0,.992H19.146a.5.5,0,0,1,0-.992Zm6.445,1.983h5.454a.488.488,0,0,1,.5.5v8.924a.487.487,0,0,1-.5.5h-.5V24.693a.5.5,0,0,0-.5-.5H27.08a.5.5,0,0,0-.5.5v2.479h-.992Zm-6.445.992h3.967a.5.5,0,1,1,0,.991H19.146a.5.5,0,1,1,0-.991Zm0,2.975h3.967a.5.5,0,1,1,0,.991H19.146a.5.5,0,1,1,0-.991Zm0,2.975h3.967a.5.5,0,1,1,0,.991H19.146a.5.5,0,1,1,0-.991Z" fill="#00b26b"/>
      <path id="Path_169" data-name="Path 169" d="M58.829,62.5a.5.5,0,0,0-.5.5v.992a.5.5,0,1,0,.992,0V63a.5.5,0,0,0-.5-.5Z" transform="translate(-31.749 -41.277)" fill="#00b26b"/>
      <path id="Path_170" data-name="Path 170" d="M71.329,62.5a.5.5,0,0,0-.5.5v.992a.5.5,0,1,0,.992,0V63a.5.5,0,0,0-.5-.5Z" transform="translate(-41.274 -41.277)" fill="#00b26b"/>
      <path id="Path_171" data-name="Path 171" d="M58.829,50a.5.5,0,0,0-.5.5v.992a.5.5,0,1,0,.992,0V50.5a.5.5,0,0,0-.5-.5Z" transform="translate(-31.749 -31.752)" fill="#00b26b"/>
      <path id="Path_172" data-name="Path 172" d="M71.329,50a.5.5,0,0,0-.5.5v.992a.5.5,0,1,0,.992,0V50.5a.5.5,0,0,0-.5-.5Z" transform="translate(-41.274 -31.752)" fill="#00b26b"/>
    </g>
  </g>
</svg>
