<svg xmlns="http://www.w3.org/2000/svg" width="36" height="36" viewBox="0 0 36 36">
  <g id="Rider_id" data-name="Rider id" transform="translate(23 -21)">
    <g id="Rectangle_34" data-name="Rectangle 34" transform="translate(-23 21)" fill="none" stroke="#00b26b" stroke-width="1">
      <rect width="36" height="36" rx="6" stroke="none"/>
      <rect x="0.5" y="0.5" width="35" height="35" rx="5.5" fill="none"/>
    </g>
    <g id="noun-contact-2884226" transform="translate(-15 29.4)">
      <path id="Path_136" data-name="Path 136" d="M17.2,5H2.8A1.8,1.8,0,0,0,1,6.8v9.6a1.8,1.8,0,0,0,1.8,1.8H17.2A1.8,1.8,0,0,0,19,16.4V6.8A1.8,1.8,0,0,0,17.2,5ZM6.4,7.4A1.8,1.8,0,1,1,4.6,9.2,1.8,1.8,0,0,1,6.4,7.4Zm3,7.8a.6.6,0,0,1-.6.6H4a.6.6,0,0,1-.6-.6V13.4a1.8,1.8,0,0,1,1.8-1.8H7.6a1.8,1.8,0,0,1,1.8,1.8Zm4.8-.6h-3a.6.6,0,1,1,0-1.2h3a.6.6,0,1,1,0,1.2ZM16,12.2H11.2a.6.6,0,1,1,0-1.2H16a.6.6,0,1,1,0,1.2Z" transform="translate(0)" fill="#00b26b"/>
    </g>
  </g>
</svg>
