<svg width="76" height="76" viewBox="0 0 76 76" fill="none" xmlns="http://www.w3.org/2000/svg">
<path fill-rule="evenodd" clip-rule="evenodd" d="M38 0.5C40.3012 0.5 42.1667 2.3655 42.1667 4.6667V40.4408L51.7205 30.8871C53.3477 29.2599 55.9858 29.2599 57.6129 30.8871C59.2401 32.5142 59.2401 35.1524 57.6129 36.7796L40.9464 53.4463C40.165 54.2277 39.1051 54.6667 38 54.6667C36.8949 54.6667 35.8351 54.2277 35.0537 53.4463L18.3871 36.7796C16.7599 35.1524 16.7599 32.5142 18.3871 30.8871C20.0142 29.2599 22.6524 29.2599 24.2796 30.8871L33.8334 40.4408V4.6667C33.8334 2.3655 35.6988 0.5 38 0.5ZM4.66675 46.3333C6.96795 46.3333 8.83335 48.1988 8.83335 50.5C8.83335 54.5718 8.85355 55.9993 9.07355 57.1053C10.0599 62.0639 13.9361 65.9402 18.8947 66.9265C20.0007 67.1465 21.4282 67.1667 25.5 67.1667H50.5C54.5718 67.1667 55.9994 67.1465 57.1054 66.9265C62.064 65.9402 65.9401 62.0639 66.9265 57.1053C67.1465 55.9993 67.1667 54.5718 67.1667 50.5C67.1667 48.1988 69.0321 46.3333 71.3333 46.3333C73.6345 46.3333 75.5 48.1988 75.5 50.5C75.5 50.6631 75.5 50.8239 75.5001 50.9822C75.5009 54.389 75.5015 56.711 75.0997 58.731C73.4558 66.9954 66.9955 73.4558 58.7311 75.0997C56.7112 75.5015 54.389 75.5009 50.9824 75.5001C50.824 75.5 50.6632 75.5 50.5 75.5H25.5C25.3368 75.5 25.176 75.5 25.0176 75.5001C21.611 75.5009 19.2889 75.5015 17.269 75.0997C9.00465 73.4558 2.54425 66.9954 0.900348 58.7311C0.498548 56.711 0.499148 54.389 0.499948 50.9823C0.500048 50.8239 0.500048 50.6632 0.500048 50.5C0.500048 48.1988 2.36555 46.3333 4.66675 46.3333Z" fill="black"/>
</svg>
