<svg xmlns="http://www.w3.org/2000/svg" width="36" height="36" viewBox="0 0 36 36">
  <g id="Email" transform="translate(23 -21)">
    <g id="Email-2" data-name="Email" transform="translate(-23 21)" fill="none" stroke="#fff" stroke-width="1">
      <rect width="36" height="36" rx="6" stroke="none"/>
      <rect x="0.5" y="0.5" width="35" height="35" rx="5.5" fill="none"/>
    </g>
    <g id="Icon_material-attach-email" data-name="Icon material-attach-email" transform="translate(-15.45 29.5)">
      <path id="Path_86" data-name="Path 86" d="M18.5,9.8V4.7A1.7,1.7,0,0,0,16.8,3H3.2A1.7,1.7,0,0,0,1.509,4.7L1.5,14.9a1.7,1.7,0,0,0,1.7,1.7h9.35V12.35A2.547,2.547,0,0,1,15.1,9.8Zm-8.5.85L3.2,6.4V4.7L10,8.95,16.8,4.7V6.4Z" fill="#fff"/>
      <path id="Path_87" data-name="Path 87" d="M27.6,19.05v3.4a1.7,1.7,0,0,1-3.4,0V18.625a.425.425,0,0,1,.85,0V22.45h1.7V18.625a2.125,2.125,0,0,0-4.25,0V22.45a3.4,3.4,0,0,0,6.8,0v-3.4Z" transform="translate(-9.1 -5.85)" fill="#fff"/>
    </g>
  </g>
</svg>
