<svg xmlns="http://www.w3.org/2000/svg" xmlns:xlink="http://www.w3.org/1999/xlink" width="196.04" height="81.896" viewBox="0 0 196.04 81.896">
  <defs>
    <linearGradient id="linear-gradient" x1="0.5" y1="0.191" x2="0.5" y2="1" gradientUnits="objectBoundingBox">
      <stop offset="0" stop-color="#00ffc3"/>
      <stop offset="0.542" stop-color="#12cd87"/>
      <stop offset="1" stop-color="#00ffc3"/>
    </linearGradient>
    <linearGradient id="linear-gradient-2" x1="0.5" y1="0.409" x2="0.5" y2="1.02" gradientUnits="objectBoundingBox">
      <stop offset="0" stop-color="#00ffc3"/>
      <stop offset="0.478" stop-color="#0ac982"/>
      <stop offset="1" stop-color="#aaf5d9"/>
    </linearGradient>
    <clipPath id="clip-path">
      <rect id="Rectangle_14" data-name="Rectangle 14" width="93.159" height="12.029" fill="url(#linear-gradient)"/>
    </clipPath>
  </defs>
  <g id="Logo" transform="translate(0 0)">
    <path id="PLUS_X_LOGO" data-name="PLUS X LOGO" d="M126.467,81.832c-4.027-.013-6.995-2.081-8.985-5.638a11.273,11.273,0,0,1-1.137-4.734c.014-8.046,0-16.093,0-24.138,0-.4.02-.81.044-1.214a1.016,1.016,0,0,1,1.08-1.069c.863-.025,1.727-.025,2.591-.012a1.229,1.229,0,0,1,1.226.988,5.258,5.258,0,0,1,.174,1.523q.013,10.652.029,21.3a18.892,18.892,0,0,0,.274,3.22,5.341,5.341,0,0,0,4.934,4.382c.593.029,1.188.024,1.782.024q27.743,0,55.486-.006a13.442,13.442,0,0,0,2.651-.205,5.64,5.64,0,0,0,4.264-5.53c.06-4.429.031-8.857.035-13.286,0-3.131,0-6.264,0-9.4a7.948,7.948,0,0,1,.1-1.287c.284-1.7.362-1.813,2.11-1.873,2.8-.1,2.885.27,2.887,2.61,0,8.046.067,16.092-.049,24.136a9.968,9.968,0,0,1-8.368,9.986,11.838,11.838,0,0,1-2,.253q-8.532,0-17.063,0l-12.1,0Q141.447,81.871,126.467,81.832ZM1.277,81.87A1.277,1.277,0,0,1,0,80.595V31.657A1.277,1.277,0,0,1,1.277,30.38H5.125A1.277,1.277,0,0,1,6.4,31.657v1.884h.137a16.057,16.057,0,0,1,22.228,3.021,15.651,15.651,0,0,1,3.379,9.425v.99q0,6.376-5.358,11.54a15.685,15.685,0,0,1-10.056,4.011H15.47a15.44,15.44,0,0,1-8.93-3.1H6.4V80.595a1.277,1.277,0,0,1-1.277,1.277ZM8.242,40.85A9.84,9.84,0,0,0,6.4,46.428q0,5.383,5.056,8.573a9.888,9.888,0,0,0,4.233,1.126h.852q3.984,0,7.309-3.792a10.1,10.1,0,0,0,1.9-5.715v-.275a9.491,9.491,0,0,0-4.15-7.8,9.945,9.945,0,0,0-5.5-1.758A9.7,9.7,0,0,0,8.242,40.85ZM153.7,64.882V58.937a2.424,2.424,0,1,1,4.849,0v5.945a2.424,2.424,0,1,1-4.849,0Zm18.554.642L156.191,48.89,140.129,65.522a5.532,5.532,0,1,1-7.959-7.684L148.5,40.926,132.17,24.017a5.532,5.532,0,1,1,7.959-7.686l16.062,16.633,16.062-16.633a5.532,5.532,0,1,1,7.959,7.686L163.881,40.93l16.33,16.91a5.532,5.532,0,0,1-7.959,7.686ZM46.788,52.544V34.373A1.277,1.277,0,0,1,48.065,33.1h3.984a1.277,1.277,0,0,1,1.277,1.277V52.265c0,3.325,2.327,5.263,5.817,5.264,4.489,0,7.147-2.937,7.2-6.7V34.373A1.277,1.277,0,0,1,67.623,33.1H71.6a1.277,1.277,0,0,1,1.277,1.277V61.183A1.277,1.277,0,0,1,71.6,62.46H68.756a1.277,1.277,0,0,1-1.268-1.128l-.26-2.221a.318.318,0,0,0-.576-.149,10.474,10.474,0,0,1-8.839,4.328c-6.981,0-11.026-4.377-11.026-10.748ZM37.7,62.64a1.527,1.527,0,0,1-1.527-1.527v-45.2A1.527,1.527,0,0,1,37.7,14.39H41.05a1.527,1.527,0,0,1,1.527,1.527V61.111a1.527,1.527,0,0,1-1.527,1.527Zm40.544,0a1.277,1.277,0,0,1-1.277-1.277v-3.85a1.277,1.277,0,0,1,1.277-1.277H101.42s2.49-.632,3.022-1.9l.22-1.347q0-3.242-3.929-3.242H91.441a9.9,9.9,0,0,1-6.76-2.8,9.441,9.441,0,0,1-2.61-6.757A10.451,10.451,0,0,1,84.6,33.46q2.5-2.968,8.023-2.968h23.723q.005-10.046,0-20.092a11.273,11.273,0,0,1,1.137-4.734c1.99-3.561,4.958-5.629,8.985-5.643q20.951-.069,41.9-.038,8.614,0,17.229,0a11.839,11.839,0,0,1,2,.253,9.97,9.97,0,0,1,8.368,9.986c.115,8.044.053,16.091.049,24.136,0,2.127-.071,2.624-2.186,2.624-.212,0-.445-.005-.7-.014-1.749-.06-1.826-.175-2.11-1.873a7.939,7.939,0,0,1-.1-1.287c-.008-3.131,0-6.265,0-9.4,0-4.429.025-8.857-.035-13.286a5.641,5.641,0,0,0-4.264-5.53,13.467,13.467,0,0,0-2.651-.205q-27.743-.01-55.486-.006c-.594,0-1.189-.005-1.782.024A5.341,5.341,0,0,0,121.762,9.8a18.894,18.894,0,0,0-.274,3.22q0,10.652-.029,21.3a5.261,5.261,0,0,1-.174,1.523,1.229,1.229,0,0,1-1.226.988q-.695.01-1.39.008a1.276,1.276,0,0,1-.364.053H92.622q-2.61,0-3.242.852a4.406,4.406,0,0,0-.907,2.528,2.827,2.827,0,0,0,1.98,2.885l1.181.22h8.6q7.8,0,10.193,5.963a11.759,11.759,0,0,1,.632,3.735,8.921,8.921,0,0,1-5.276,8.573,9.615,9.615,0,0,1-4.011.99Zm95.191-19.985a2.424,2.424,0,1,1,0-4.849h5.945a2.424,2.424,0,1,1,0,4.849Zm-40.215,0a2.424,2.424,0,0,1,0-4.849h5.945a2.424,2.424,0,1,1,0,4.849ZM153.7,22.921V16.974a2.424,2.424,0,1,1,4.849,0v5.945a2.424,2.424,0,0,1-4.849,0Z" transform="translate(0 0.025)" fill="url(#linear-gradient-2)"/>
    <g id="Group_13" data-name="Group 13" transform="translate(15.708 69.867)">
      <g id="Group_12" data-name="Group 12" clip-path="url(#clip-path)">
        <path id="Path_6" data-name="Path 6" d="M4.475,12.028a5.233,5.233,0,0,0,3-.951.318.318,0,0,0,.085-.42L7.3,10.224a.316.316,0,0,0-.447-.106,4.2,4.2,0,0,1-2.367.717A3.059,3.059,0,0,1,1.444,8.447a.32.32,0,0,1,.314-.386H8.064a.319.319,0,0,0,.319-.3c0-.073.008-.153.008-.229A4.239,4.239,0,0,0,4.3,3.127,4.334,4.334,0,0,0,0,7.585a4.335,4.335,0,0,0,4.477,4.443M1.767,7.041a.321.321,0,0,1-.313-.393A2.877,2.877,0,0,1,4.229,4.32a2.877,2.877,0,0,1,2.8,2.348.32.32,0,0,1-.316.374Zm14.107,4.81h.7a.32.32,0,0,0,.319-.319V.618A.32.32,0,0,0,16.57.3h-.7a.32.32,0,0,0-.319.319V11.533a.32.32,0,0,0,.319.319m12.657.176a5.23,5.23,0,0,0,3-.951.318.318,0,0,0,.085-.42l-.255-.433a.316.316,0,0,0-.447-.106,4.2,4.2,0,0,1-2.367.717A3.059,3.059,0,0,1,25.5,8.446a.32.32,0,0,1,.314-.386H32.12a.319.319,0,0,0,.319-.3c0-.073.008-.153.008-.229a4.238,4.238,0,0,0-4.091-4.407,4.334,4.334,0,0,0-4.3,4.46,4.335,4.335,0,0,0,4.477,4.443ZM25.823,7.041a.321.321,0,0,1-.313-.393,2.83,2.83,0,0,1,5.574.019.32.32,0,0,1-.316.374Zm17.932,4.987a4.7,4.7,0,0,0,3.04-1.067.316.316,0,0,0,.042-.435l-.382-.5a.315.315,0,0,0-.445-.058,3.449,3.449,0,0,1-2.2.756,3.063,3.063,0,0,1-3.177-2.945c0-.066,0-.132,0-.2a3.069,3.069,0,0,1,2.975-3.16h.168a3.187,3.187,0,0,1,1.975.614.315.315,0,0,0,.42-.049l.42-.473a.322.322,0,0,0-.05-.471,4.561,4.561,0,0,0-2.784-.92,4.441,4.441,0,0,0-4.5,4.386c0,.024,0,.049,0,.074a4.426,4.426,0,0,0,4.409,4.443h.086m12.994,0a3.522,3.522,0,0,0,1.718-.475.324.324,0,0,0,.141-.406l-.191-.447a.319.319,0,0,0-.444-.155,2.549,2.549,0,0,1-1.1.289c-.685,0-1.194-.334-1.194-1.51v-4.6a.32.32,0,0,1,.319-.319h2.276a.32.32,0,0,0,.319-.319V3.62a.32.32,0,0,0-.319-.319H55.995a.32.32,0,0,1-.319-.319V1.6a.319.319,0,0,0-.377-.314l-.7.128a.319.319,0,0,0-.262.314v1.26a.32.32,0,0,1-.319.319h-.643a.32.32,0,0,0-.319.319v.468a.32.32,0,0,0,.319.319h.643a.32.32,0,0,1,.319.319V9.29c0,2,.895,2.739,2.405,2.739m9.134-.176h.7a.32.32,0,0,0,.319-.319V7.8A2.948,2.948,0,0,1,69.9,4.591a.32.32,0,0,0,.3-.322v-.81a.323.323,0,0,0-.351-.319,3.348,3.348,0,0,0-2.831,1.728.064.064,0,0,1-.119-.032V3.622a.32.32,0,0,0-.319-.319H65.563v8.231a.32.32,0,0,0,.319.319m11.449,0h.7a.32.32,0,0,0,.319-.319V3.62a.32.32,0,0,0-.319-.319h-.7a.32.32,0,0,0-.319.319v7.913a.32.32,0,0,0,.319.319M77.68,1.774a.885.885,0,0,0,.9-.873v0a.9.9,0,0,0-.9-.9A.884.884,0,0,0,76.8.891v0a.869.869,0,0,0,.861.878h.017M90.006,12.028a4.7,4.7,0,0,0,3.04-1.067.315.315,0,0,0,.042-.435l-.382-.5a.315.315,0,0,0-.445-.058,3.449,3.449,0,0,1-2.2.756,3.063,3.063,0,0,1-3.177-2.945c0-.066,0-.132,0-.2a3.069,3.069,0,0,1,2.975-3.16h.168A3.187,3.187,0,0,1,92,5.038a.315.315,0,0,0,.42-.049l.42-.473a.322.322,0,0,0-.05-.471,4.564,4.564,0,0,0-2.784-.92,4.441,4.441,0,0,0-4.5,4.386c0,.024,0,.049,0,.074a4.426,4.426,0,0,0,4.41,4.443h.086" transform="translate(0.003)" fill="url(#linear-gradient)"/>
      </g>
    </g>
  </g>
</svg>
