<svg xmlns="http://www.w3.org/2000/svg" width="36" height="36" viewBox="0 0 36 36">
  <g id="logout" transform="translate(-1738 -279)">
    <g id="Rectangle_31" data-name="Rectangle 31" transform="translate(1738 279)" fill="none" stroke="#fff" stroke-width="1">
      <rect width="36" height="36" rx="6" stroke="none"/>
      <rect x="0.5" y="0.5" width="35" height="35" rx="5.5" fill="none"/>
    </g>
    <path id="Logout-2" data-name="Logout" d="M5.518,15.876A18.449,18.449,0,0,1,.235,11.644a1,1,0,0,1,0-1.287A18.449,18.449,0,0,1,5.518,6.124,1,1,0,0,1,7,7V8h7a2,2,0,0,1,2,2v2a2,2,0,0,1-2,2H7v1a1,1,0,0,1-1.482.876ZM11.5.5A10.414,10.414,0,0,0,4.313,3.363,1,1,0,0,0,5.688,4.816,8.493,8.493,0,1,1,11.5,19.5a8.42,8.42,0,0,1-5.812-2.316,1,1,0,1,0-1.375,1.453A10.495,10.495,0,1,0,11.5.5Z" transform="translate(1745 286.005)" fill="#fff"/>
  </g>
</svg>
