<svg xmlns="http://www.w3.org/2000/svg" width="36" height="36" viewBox="0 0 36 36">
  <g id="Rented" transform="translate(23 -21)">
    <g id="Rectangle_34" data-name="Rectangle 34" transform="translate(-23 21)" fill="none" stroke="#00b26b" stroke-width="1">
      <rect width="36" height="36" rx="6" stroke="none"/>
      <rect x="0.5" y="0.5" width="35" height="35" rx="5.5" fill="none"/>
    </g>
    <g id="noun-bicycle-7621623" transform="translate(-20.012 21.707)">
      <path id="Path_177" data-name="Path 177" d="M10.942,27.587h8.139a.239.239,0,1,0,0-.479H10.942a.239.239,0,1,0,0,.479Zm-2.633-.958H21.954a.239.239,0,1,0,0-.479H8.309a.239.239,0,1,0,0,.479Zm2.873-.958h1.2a.239.239,0,1,0,0-.479h-1.2a.239.239,0,1,0,0,.479Zm13.405,0h1.2a.239.239,0,1,0,0-.479h-1.2a.239.239,0,1,0,0,.479Zm-10.293,0H15.73a.239.239,0,1,0,0-.479H14.293a.239.239,0,1,0,0,.479Zm-2.86-9.316-.9,1.318a4.309,4.309,0,1,0-4.2,7.519H4.24a.239.239,0,1,0,0,.479H8.309a4.312,4.312,0,0,0,4.3-4.069h1.443v1.2a.24.24,0,0,0,.239.239h1.492a.239.239,0,0,0,.12-.447l-.894-.511.1-.479h.378a.237.237,0,0,0,.2-.1l3.608-5.122.49,1.131a4.309,4.309,0,0,0-.045,7.683H17.645a.239.239,0,0,0,0,.479h4.069a4.309,4.309,0,1,0-1.491-8.352L19.071,14.66h.221l.2.179a.239.239,0,0,0,.159.061h.407a.239.239,0,0,0,.212-.129.243.243,0,0,0,.027-.11h1.178a.479.479,0,0,1,0,.958h-.718a.239.239,0,1,0,0,.479h.718a.958.958,0,0,0,0-1.915H20.014L16.4,9.018a.239.239,0,0,0-.2-.1c-2.086.028-4.154.765-5.682,3.951,0,0-.256.569-.51,1.138a1.437,1.437,0,0,0,.545,1.8Zm5.254,8.836a.239.239,0,1,1-.239.239A.24.24,0,0,1,16.687,25.192Zm-3.351,0a.239.239,0,1,1-.239.239A.24.24,0,0,1,13.336,25.192Zm6.83-6.8A3.3,3.3,0,1,0,20.6,18.2l1.06,2.446.05,0a.719.719,0,1,1-.489.193Zm-10.171.076A3.351,3.351,0,1,0,11.653,21.6h-.961A2.4,2.4,0,0,1,8.31,23.757a.239.239,0,0,1,0-.479,1.916,1.916,0,0,0,1.9-1.676H8.987a.718.718,0,1,1-.677-.958.734.734,0,0,1,.183.023Zm11.72,4.812A1.916,1.916,0,0,1,19.8,21.363a.239.239,0,1,0-.479,0,2.4,2.4,0,0,0,2.394,2.394.239.239,0,0,0,0-.479Zm0-3.83a1.916,1.916,0,0,1,1.915,1.915.239.239,0,1,0,.479,0,2.4,2.4,0,0,0-2.394-2.394.239.239,0,0,0,0,.479ZM8.309,18.969a2.4,2.4,0,0,0-2.394,2.394.239.239,0,1,0,.479,0,1.916,1.916,0,0,1,1.915-1.915.239.239,0,1,0,0-.479Zm6.634-2.633.565.659a1.436,1.436,0,0,1,.315,1.231l-.611,2.9h.153l3.373-4.788Zm-2.332,4.788h1.078l-1.915-4.418-.844,1.239a4.3,4.3,0,0,1,1.681,3.18ZM10.39,18.736l-1.5,2.2a.7.7,0,0,1,.1.185h2.666a3.348,3.348,0,0,0-1.262-2.387Zm2.024-1.761,1.64,3.785V18.012Zm6.339-2.794c-.621-.552-1.487-1.32-2.174-1.927a1.437,1.437,0,0,0-2.027.181L13.1,14.183l1.436,1.676h4.534l-.581-1.341a.239.239,0,0,1,.22-.334ZM5.676,12.027h3.83a.239.239,0,0,0,0-.479H5.676a.239.239,0,0,0,0,.479Zm-.958-.479a.239.239,0,1,1-.239.239A.24.24,0,0,1,4.718,11.548Zm1.915-.958h3.591a.239.239,0,0,0,0-.479H6.633a.239.239,0,1,0,0,.479Zm-.958-.479a.239.239,0,1,1-.239.239A.24.24,0,0,1,5.676,10.112ZM18.842,7a1.676,1.676,0,1,1-1.676,1.676A1.676,1.676,0,0,1,18.842,7ZM7.591,9.155H11.66a.239.239,0,0,0,0-.479H7.591a.239.239,0,0,0,0,.479Zm-.958-.479a.239.239,0,1,1-.239.239A.24.24,0,0,1,6.633,8.676Z" fill="#00b26b" fill-rule="evenodd"/>
    </g>
  </g>
</svg>
