<svg width="48" height="43" viewBox="0 0 48 43" fill="none" xmlns="http://www.w3.org/2000/svg">
<path fill-rule="evenodd" clip-rule="evenodd" d="M29.0414 31.7776L19.0461 41.7729C18.2687 42.5503 17.0107 42.5528 16.2242 41.7663C15.4432 40.9853 15.4451 39.717 16.2177 38.9444L26.2146 28.9476C24.82 26.9869 24 24.5892 24 22C24 15.3726 29.3726 10 36 10C42.6274 10 48 15.3726 48 22C48 28.6274 42.6274 34 36 34C33.4059 34 31.0041 33.1769 29.0414 31.7776ZM30.5963 27.8992C32.0198 29.2038 33.9169 30 36 30C40.4183 30 44 26.4183 44 22C44 17.5817 40.4183 14 36 14C31.5817 14 28 17.5817 28 22C28 24.0783 28.7925 25.9715 30.0918 27.3939C30.1881 27.4612 30.2801 27.5379 30.3664 27.6242C30.4525 27.7104 30.5292 27.8025 30.5963 27.8992ZM0 12C0 10.8954 0.898212 10 1.9908 10H18.0092C19.1087 10 20 10.8877 20 12C20 13.1046 19.1018 14 18.0092 14H1.9908C0.891309 14 0 13.1123 0 12ZM0 22C0 20.8954 0.89706 20 2.00586 20H11.9941C13.1019 20 14 20.8877 14 22C14 23.1046 13.1029 24 11.9941 24H2.00586C0.898054 24 0 23.1123 0 22ZM0 32C0 30.8954 0.89706 30 2.00586 30H11.9941C13.1019 30 14 30.8877 14 32C14 33.1046 13.1029 34 11.9941 34H2.00586C0.898054 34 0 33.1123 0 32ZM0 2C0 0.89543 0.898855 0 2.00492 0H41.9951C43.1024 0 44 0.88773 44 2C44 3.10457 43.1011 4 41.9951 4H2.00492C0.897635 4 0 3.11227 0 2Z" fill="black"/>
</svg>
