<svg xmlns="http://www.w3.org/2000/svg" width="76" height="76.026" viewBox="0 0 76 76.026">
  <path id="Path_89" data-name="Path 89" d="M63.163,9.192a7.6,7.6,0,0,1,11.3,0l7.634,8.482a2.533,2.533,0,0,1-3.766,3.389L71.345,13.3V34.568a2.533,2.533,0,1,1-5.067,0V13.3l-6.984,7.76a2.533,2.533,0,1,1-3.766-3.389ZM27.012,11.768a15.2,15.2,0,0,0-15.2,15.2V62.435q0,.731.068,1.445l5.745-9.192A17.733,17.733,0,0,1,46.2,52.632l6.547,7.737a14.968,14.968,0,0,1,24.932.219V44.7a2.533,2.533,0,1,1,5.067,0V62.435A20.267,20.267,0,0,1,62.478,82.7H27.012A20.267,20.267,0,0,1,6.745,62.435V26.968A20.267,20.267,0,0,1,27.012,6.7H49.178a2.533,2.533,0,0,1,0,5.067Z" transform="translate(-6.745 -6.676)" fill="#00ffc3" fill-rule="evenodd"/>
</svg>
