<svg xmlns="http://www.w3.org/2000/svg" width="36" height="36" viewBox="0 0 36 36">
  <g id="Eye" transform="translate(-1738 -279)">
    <g id="Rectangle_31" data-name="Rectangle 31" transform="translate(1738 279)" fill="none" stroke="#fff" stroke-width="1">
      <rect width="36" height="36" rx="6" stroke="none"/>
      <rect x="0.5" y="0.5" width="35" height="35" rx="5.5" fill="none"/>
    </g>
    <g id="Icon_ion-eye" data-name="Icon ion-eye" transform="translate(1745.709 284.354)">
      <path id="Path_78" data-name="Path 78" d="M18.389,15.945A2.445,2.445,0,1,1,15.945,13.5,2.445,2.445,0,0,1,18.389,15.945Z" transform="translate(-5.653 -3.083)" fill="#fff"/>
      <path id="Path_79" data-name="Path 79" d="M19.262,12.2a12.946,12.946,0,0,0-3.792-3.84A9.6,9.6,0,0,0,10.279,6.75,9.151,9.151,0,0,0,5.532,8.129a13.914,13.914,0,0,0-4.189,4.052,1.219,1.219,0,0,0-.024,1.358,12.762,12.762,0,0,0,3.754,3.845,9.462,9.462,0,0,0,5.207,1.59,9.635,9.635,0,0,0,5.2-1.594,12.756,12.756,0,0,0,3.785-3.855,1.23,1.23,0,0,0,0-1.328Zm-8.97,4.332a3.667,3.667,0,1,1,3.667-3.667,3.667,3.667,0,0,1-3.667,3.667Z" fill="#fff"/>
    </g>
  </g>
</svg>
