<svg xmlns="http://www.w3.org/2000/svg" width="32.282" height="30.815" viewBox="0 0 32.282 30.815">
  <g id="EV_Rider_Club" data-name="EV Rider Club" transform="translate(-390.089 -457.964)">
    <g id="Rectangle_16" data-name="Rectangle 16" transform="translate(390.089 457.964)" fill="none" stroke="#fff" stroke-width="1">
      <rect width="32.282" height="30.815" rx="4" stroke="none"/>
      <rect x="0.5" y="0.5" width="31.282" height="29.815" rx="3.5" fill="none"/>
    </g>
    <g id="noun-people-4306514" transform="translate(395.512 453.849)">
      <g id="Group_37" data-name="Group 37" transform="translate(0.572 9.8)">
        <path id="Path_43" data-name="Path 43" d="M10.889,53.977A2.089,2.089,0,1,0,8.8,51.889,2.088,2.088,0,0,0,10.889,53.977Z" transform="translate(-7.437 -41.006)" fill="#fff"/>
        <path id="Path_44" data-name="Path 44" d="M8.91,72.245A3.627,3.627,0,0,0,7.855,71.3a3.16,3.16,0,0,1-3.562,0A3.31,3.31,0,0,0,2.6,74.18v.44a.835.835,0,0,0,.835.835H8.646a1.866,1.866,0,0,1-.2-.835v-.44A4.184,4.184,0,0,1,8.91,72.245Z" transform="translate(-2.6 -57.778)" fill="#fff"/>
        <path id="Path_45" data-name="Path 45" d="M72.2,51.889A2.089,2.089,0,1,0,74.289,49.8,2.117,2.117,0,0,0,72.2,51.889Z" transform="translate(-56.898 -41.006)" fill="#fff"/>
        <path id="Path_46" data-name="Path 46" d="M73.417,71.3a3.16,3.16,0,0,1-3.562,0,3.34,3.34,0,0,0-1.055.945,4.4,4.4,0,0,1,.462,1.935v.44a1.737,1.737,0,0,1-.2.835h5.211a.835.835,0,0,0,.835-.835v-.44A3.31,3.31,0,0,0,73.417,71.3Z" transform="translate(-54.245 -57.779)" fill="#fff"/>
        <path id="Path_47" data-name="Path 47" d="M40.5,51.889A2.089,2.089,0,1,0,42.589,49.8,2.117,2.117,0,0,0,40.5,51.889Z" transform="translate(-32.167 -41.006)" fill="#fff"/>
        <path id="Path_48" data-name="Path 48" d="M39.455,71.3a3.16,3.16,0,0,1-3.562,0A3.31,3.31,0,0,0,34.2,74.18v.44a.835.835,0,0,0,.835.835h5.277a.835.835,0,0,0,.835-.835v-.44A3.31,3.31,0,0,0,39.455,71.3Z" transform="translate(-27.252 -57.779)" fill="#fff"/>
        <path id="Path_49" data-name="Path 49" d="M28.777,31.889a2.089,2.089,0,1,0-2.089,2.089A2.088,2.088,0,0,0,28.777,31.889Z" transform="translate(-19.763 -25.403)" fill="#fff"/>
        <path id="Path_50" data-name="Path 50" d="M60.477,31.889a2.089,2.089,0,1,0-2.089,2.089A2.088,2.088,0,0,0,60.477,31.889Z" transform="translate(-44.493 -25.403)" fill="#fff"/>
        <path id="Path_51" data-name="Path 51" d="M42.589,13.977A2.089,2.089,0,1,0,40.5,11.889,2.088,2.088,0,0,0,42.589,13.977Z" transform="translate(-32.167 -9.8)" fill="#fff"/>
      </g>
    </g>
  </g>
</svg>
