<svg xmlns="http://www.w3.org/2000/svg" width="32.282" height="30.815" viewBox="0 0 32.282 30.815">
  <g id="EV_Specialized_Shops_" data-name="EV Specialized Shops " transform="translate(-390.089 -457.964)">
    <g id="Rectangle_16" data-name="Rectangle 16" transform="translate(390.089 457.964)" fill="none" stroke="#fff" stroke-width="1">
      <rect width="32.282" height="30.815" rx="4" stroke="none"/>
      <rect x="0.5" y="0.5" width="31.282" height="29.815" rx="3.5" fill="none"/>
    </g>
    <g id="noun-car-repair-shop-6579281" transform="translate(395.77 454.849)">
      <path id="Path_59" data-name="Path 59" d="M6.45,25.415a.81.81,0,1,1-.81-.81A.81.81,0,0,1,6.45,25.415Zm7.306-.81a.809.809,0,1,0,.81.81A.811.811,0,0,0,13.755,24.606Zm9.036-14.328v3.96H7.571v-3.96A.276.276,0,0,1,7.848,10H22.515A.276.276,0,0,1,22.791,10.278Zm-4.817,2.045a.866.866,0,0,1,.866-.866h.043a1.03,1.03,0,0,0-1.41.3.277.277,0,0,1-.23.123H11.592a.445.445,0,0,0,0,.89h5.652a.276.276,0,0,1,.23.123,1.03,1.03,0,0,0,1.41.3h-.043A.867.867,0,0,1,17.974,12.324Zm4.265,2.467h.552V26.763a.276.276,0,0,1-.276.276h-8.64c-.039,0-.079,0-.119,0s-.08,0-.119,0H5.759c-.039,0-.079,0-.119,0s-.08,0-.119,0H3.216a.276.276,0,0,1,0-.553h1.2a1.618,1.618,0,0,1-.195-.276H3.3a.709.709,0,0,1-.362-1.318V23.228a.932.932,0,0,1,.587-.861l.007,0A2.3,2.3,0,0,0,4.833,21,2.233,2.233,0,0,1,7.1,19.457h.471V14.79H22.239ZM9.411,22.24a.276.276,0,0,0,.276.277h2.48a.276.276,0,0,0,.24-.413c-.622-1.1-1.1-1.715-1.408-1.838a.28.28,0,0,0-.1-.019H9.687a.276.276,0,0,0-.276.276Zm1.535.636h-.555a.276.276,0,1,0,0,.553h.555a.276.276,0,0,0,0-.553ZM5.157,22.37a.277.277,0,0,0,.244.146H8.776a.276.276,0,0,0,.276-.277V20.523a.276.276,0,0,0-.276-.276H7.1A1.484,1.484,0,0,0,5.537,21.39c-.03.068-.061.139-.1.212a3.5,3.5,0,0,1-.27.485A.276.276,0,0,0,5.157,22.37Zm2.83.506H7.432a.276.276,0,0,0,0,.553h.556a.276.276,0,0,0,0-.553ZM6.716,25.415a1.076,1.076,0,1,0-2.152,0,1.063,1.063,0,0,0,.079.4l.007.017a1.078,1.078,0,0,0,.891.649h.2a1.076,1.076,0,0,0,.892-.653l0-.01A1.063,1.063,0,0,0,6.716,25.415Zm5.814,1.071a1.618,1.618,0,0,1-.195-.276H7.06a1.609,1.609,0,0,1-.195.276H12.53Zm2.3-1.071a1.076,1.076,0,1,0-2.152,0,1.064,1.064,0,0,0,.079.4.2.2,0,0,0,.008.02,1.077,1.077,0,0,0,.89.647h.2a1.076,1.076,0,0,0,.892-.653l0-.01A1.068,1.068,0,0,0,14.831,25.415Zm5.8-6.561H9.733v.6h1.192c.841,0,1.589,1.2,2.341,2.568l2.183.287a1.429,1.429,0,0,1,1.272,1.422v1.159a.709.709,0,0,1-.363,1.318H15.175a1.609,1.609,0,0,1-.195.276h5.65V18.854Zm0-.829H9.733V18.3h10.9Zm0-.829H9.733v.276h10.9Zm0-.828H9.733v.276h10.9Z" transform="translate(-2.232)" fill="#fff"/>
    </g>
  </g>
</svg>
