<svg id="no._of_ride" data-name="no. of ride" xmlns="http://www.w3.org/2000/svg" width="92.79" height="92.79" viewBox="0 0 92.79 92.79">
  <g id="Rectangle_16" data-name="Rectangle 16" transform="translate(0 0)" fill="none" stroke="#00b26b" stroke-width="3">
    <rect width="92.79" height="92.79" rx="11" stroke="none"/>
    <rect x="1.5" y="1.5" width="89.79" height="89.79" rx="9.5" fill="none"/>
  </g>
  <g id="noun-cycling-7847926" transform="translate(10.503 25.461)">
    <path id="Path_134" data-name="Path 134" d="M-3032.7-439.4a.689.689,0,0,1-.7-.672.689.689,0,0,1,.7-.672h.7a.688.688,0,0,1,.706.672.691.691,0,0,1-.706.672Zm-37.282,0a.69.69,0,0,1-.706-.672.69.69,0,0,1,.706-.672l2.871,0a13.222,13.222,0,0,1-7.811-11.906c0-7.3,6.238-13.248,13.9-13.248a14.276,14.276,0,0,1,8.317,2.641l4.8-5.513-2.838-4.172h-.455a2.41,2.41,0,0,1-2.463-2.347v-.139a2.41,2.41,0,0,1,2.463-2.347h6.979a2.9,2.9,0,0,1,2.961,2.822v1.342a.69.69,0,0,1-.7.672h-3.4l2.416,3.549h17.7l-3-6.754c-.1-.225-.035.014-.056-4.455a.69.69,0,0,1,.705-.672h6.6a2.841,2.841,0,0,1,2.9,2.766,2.841,2.841,0,0,1-2.9,2.766h-2.931a.69.69,0,0,1-.706-.672.69.69,0,0,1,.706-.672H-3021a1.462,1.462,0,0,0,1.5-1.425,1.463,1.463,0,0,0-1.5-1.425h-5.9v3.386l5.088,11.448h0c9.017-3.147,18.667,3.239,18.667,12.448,0,7.3-6.237,13.248-13.9,13.248h-12.14a.69.69,0,0,1-.706-.672.69.69,0,0,1,.706-.672h6.047a13.222,13.222,0,0,1-7.81-11.906,13.227,13.227,0,0,1,7.84-11.921l-1.364-3.069-12,12.265a4.025,4.025,0,0,1-.547,5.96l.795,1.325a.649.649,0,0,1-.114.808l-1.465,1.4a.729.729,0,0,1-.994,0,.648.648,0,0,1,0-.947l1.086-1.036-.527-.878a4.392,4.392,0,0,1-5.84-3.23h-3.066c-.367,6.994-6.454,12.576-13.883,12.576Zm-3.539-13.25c0,6.565,5.6,11.906,12.494,11.906h0a12.262,12.262,0,0,0,12.47-11.234h-2.264a10.057,10.057,0,0,1-10.21,9.081,10.013,10.013,0,0,1-10.235-9.754c0-7.976,9.516-12.515,16.21-7.913l1.445-1.661a12.65,12.65,0,0,0-7.341-2.333C-3067.411-464.556-3073.521-459.722-3073.521-452.65Zm43.989,0c0,6.565,5.6,11.906,12.493,11.906s12.494-5.341,12.494-11.906c0-8.207-8.58-13.992-16.713-11.209l.883,1.989c6.645-2.186,13.569,2.547,13.569,9.221a10.013,10.013,0,0,1-10.236,9.754,10.013,10.013,0,0,1-10.235-9.754,9.729,9.729,0,0,1,5.607-8.7l-.883-1.986A11.884,11.884,0,0,0-3029.532-452.65Zm3.668,0a8.638,8.638,0,0,0,8.827,8.412,8.638,8.638,0,0,0,8.828-8.412c0-5.716-5.9-9.8-11.611-7.982l3.431,7.721h0a.659.659,0,0,1-.373.878.718.718,0,0,1-.924-.356l-3.43-7.718A8.381,8.381,0,0,0-3025.864-452.649Zm-43.991,0a8.638,8.638,0,0,0,8.827,8.412,8.676,8.676,0,0,0,8.8-7.741h-8.8a.671.671,0,0,1-.542-1.1l5.615-6.449a8.959,8.959,0,0,0-5.026-1.537C-3065.557-461.066-3069.854-457.617-3069.854-452.65Zm27.127,0a2.936,2.936,0,0,0,3.777,2.711l-1.426-2.377a.654.654,0,0,1,.263-.914.722.722,0,0,1,.958.25l1.425,2.378a2.809,2.809,0,0,0-2.037-4.869A2.9,2.9,0,0,0-3042.728-452.653Zm-8.9-9.747a12.993,12.993,0,0,1,4.481,9.08h3.066a4.178,4.178,0,0,1,2.049-2.891c-.49-1.055-4.591-9.931-5.2-11.245Zm-2.346,2.694a9.547,9.547,0,0,1,3.153,6.385h2.264a11.661,11.661,0,0,0-3.972-8.046Zm-5.558,6.385h7.3a8.232,8.232,0,0,0-2.641-5.349Zm21.977-2.916,7.055-7.207h-13.335l3.109,6.732a4.573,4.573,0,0,1,.964-.1A4.48,4.48,0,0,1-3037.552-456.236Zm-6.9-8.548h15.271l3.194-3.263h-19.971Zm-2.2-4.605h2.031l-2.416-3.549h-2.031C-3047.6-470.772-3046.951-469.819-3046.656-469.389Zm-4.547-4.891h8.533v-.672a1.52,1.52,0,0,0-1.553-1.48h-6.979a1.031,1.031,0,0,0-1.056,1.005v.139h0A1.033,1.033,0,0,0-3051.2-474.28Zm38.565,21.63a4.183,4.183,0,0,0-2.73-3.88.654.654,0,0,1-.382-.875.712.712,0,0,1,.918-.366,5.519,5.519,0,0,1,3.605,5.121.69.69,0,0,1-.705.672A.69.69,0,0,1-3012.638-452.65Zm-54.2,0a5.68,5.68,0,0,1,5.806-5.532.69.69,0,0,1,.705.672.683.683,0,0,1-.7.67,4.3,4.3,0,0,0-4.4,4.191.69.69,0,0,1-.705.672A.691.691,0,0,1-3066.836-452.653Z" transform="translate(3074.922 481.268)" fill="#00b26b" stroke="#00b26b" stroke-width="1"/>
  </g>
</svg>
