<svg xmlns="http://www.w3.org/2000/svg" width="32.282" height="30.815" viewBox="0 0 32.282 30.815">
  <g id="Total_Portable_Charger" data-name="Total Portable Charger" transform="translate(-390.089 -457.964)">
    <g id="Rectangle_16" data-name="Rectangle 16" transform="translate(390.089 457.964)" fill="none" stroke="#fff" stroke-width="1">
      <rect width="32.282" height="30.815" rx="4" stroke="none"/>
      <rect x="0.5" y="0.5" width="31.282" height="29.815" rx="3.5" fill="none"/>
    </g>
    <g id="noun-portable-charger-6359646" transform="translate(396.469 463.845)">
      <path id="Path_11" data-name="Path 11" d="M17.264,4.907v1.54a.582.582,0,0,1-.577.577h-.192v8.662A2.116,2.116,0,0,1,14.376,17.8H11.3A2.1,2.1,0,0,1,9.2,15.879H10.38a.948.948,0,0,0,.924.77h3.08a.963.963,0,0,0,.962-.962V7.024h-.192a.582.582,0,0,1-.577-.577V4.907a.582.582,0,0,1,.577-.577h1.54a.582.582,0,0,1,.577.577Zm-4.62-1.54v9.239a2.116,2.116,0,0,1-2.117,2.117H4.367A2.116,2.116,0,0,1,2.25,12.606V3.367A2.116,2.116,0,0,1,4.367,1.25h6.159A2.116,2.116,0,0,1,12.644,3.367ZM9.095,7.687A.588.588,0,0,0,8.6,7.409H7.224l.739-1.471A.574.574,0,0,0,7.7,5.161a.58.58,0,0,0-.778.262L5.769,7.733a.579.579,0,0,0,.516.839H7.663l-.739,1.471a.574.574,0,0,0,.262.778.616.616,0,0,0,.254.062.58.58,0,0,0,.516-.316L9.11,8.256a.584.584,0,0,0-.023-.562Z" fill="#fff"/>
    </g>
  </g>
</svg>
