<svg xmlns="http://www.w3.org/2000/svg" width="32.282" height="30.815" viewBox="0 0 32.282 30.815">
  <g id="Total_EV_Guide" data-name="Total EV Guide" transform="translate(-390.089 -457.964)">
    <g id="Rectangle_16" data-name="Rectangle 16" transform="translate(390.089 457.964)" fill="none" stroke="#fff" stroke-width="1">
      <rect width="32.282" height="30.815" rx="4" stroke="none"/>
      <rect x="0.5" y="0.5" width="31.282" height="29.815" rx="3.5" fill="none"/>
    </g>
    <g id="noun-ev-charger-5698170_1_" data-name="noun-ev-charger-5698170 (1)" transform="translate(394.255 402.214)">
      <g id="Group_35" data-name="Group 35" transform="translate(2.126 63.348)">
        <path id="Path_34" data-name="Path 34" d="M276.929,181.114h-.485l.29-.87a.186.186,0,1,0-.353-.118l-.372,1.115a.186.186,0,0,0,.176.245h.485l-.29.87a.185.185,0,0,0,.118.235.2.2,0,0,0,.235-.118l.372-1.115a.186.186,0,0,0-.176-.245Z" transform="translate(-265.222 -174.58)" fill="#fff"/>
        <path id="Path_35" data-name="Path 35" d="M63.3,63.626a1.149,1.149,0,0,0-.921-.266l-5.5.826a1.157,1.157,0,0,0-.98,1.138v.469H54.778v-.557a.93.93,0,0,0-.929-.929H44.929a.93.93,0,0,0-.929.929V74.9a.93.93,0,0,0,.929.929h5.043l-.238.763a.557.557,0,0,0,.532.724h.209L49.3,80.532a.372.372,0,0,0,.349.5h.72a.373.373,0,0,0,.349-.244l1.262-3.472h.475a.554.554,0,0,0,.532-.391l.342-1.1h.514a.93.93,0,0,0,.929-.929v-.186h1.115v.1a1.157,1.157,0,0,0,.98,1.138l5.5.825A1.15,1.15,0,0,0,63.7,75.637V64.5A1.15,1.15,0,0,0,63.3,63.626Zm-8.519,2.539h1.115v1.279l-1.115.043Zm-9.105,8.176H49.76a.186.186,0,0,1,0,.372H45.672a.558.558,0,0,1-.557-.557V65.979a.558.558,0,0,1,.557-.557h7.433a.186.186,0,1,1,0,.372H45.672a.186.186,0,0,0-.186.186v8.176A.186.186,0,0,0,45.672,74.341Zm6.965,2.471a.184.184,0,0,1-.177.13H50.266a.186.186,0,0,1-.177-.242L51.4,72.514c.027,0,2.552.1,2.552.1Zm3.255-2.471H54.778V72.648l1.115.043Zm-4.4-2.192a.834.834,0,0,1-.8-.836V68.821a.834.834,0,0,1,.8-.836l7.619-.293a.836.836,0,0,1,.868.836v3.079a.836.836,0,0,1-.868.836Zm8.3,1.82a2.114,2.114,0,0,1-1.735-1.2l1.086.041a1.208,1.208,0,0,0,1.206-1.208V68.528A1.208,1.208,0,0,0,59.1,67.321l-1.038.04a2.114,2.114,0,0,1,1.735-1.2c1.332,0,2.416,1.751,2.416,3.9S61.127,73.97,59.795,73.97Z" transform="translate(-44 -63.348)" fill="#fff"/>
      </g>
    </g>
  </g>
</svg>
