<svg xmlns="http://www.w3.org/2000/svg" width="32.282" height="30.815" viewBox="0 0 32.282 30.815">
  <g id="Total_Electric_Car_Leasing" data-name="Total Electric Car Leasing" transform="translate(-390.089 -457.964)">
    <g id="Rectangle_16" data-name="Rectangle 16" transform="translate(390.089 457.964)" fill="none" stroke="#fff" stroke-width="1">
      <rect width="32.282" height="30.815" rx="4" stroke="none"/>
      <rect x="0.5" y="0.5" width="31.282" height="29.815" rx="3.5" fill="none"/>
    </g>
    <g id="noun-electric-car-6852089" transform="translate(395.344 455.688)">
      <path id="Path_33" data-name="Path 33" d="M5.27,18.056A4.267,4.267,0,1,1,9.4,14.883H8.753a3.653,3.653,0,0,0-3.483-4.75,3.652,3.652,0,1,0,.7,7.238l-.206.656a4.48,4.48,0,0,1-.493.028ZM4.5,16.417a.264.264,0,0,0,.321-.089l2.092-2.914a.265.265,0,0,0-.215-.419H5.714l.5-1.284a.266.266,0,0,0-.247-.362h-1.2a.266.266,0,0,0-.244.162L3.508,13.927a.264.264,0,0,0,.244.368H4.72l-.37,1.828a.264.264,0,0,0,.154.295Zm16.267-2.492v6.567a1.715,1.715,0,0,1-1.713,1.713H17.744v1.5a.308.308,0,0,1-.308.309h-.427v.459a1.377,1.377,0,1,1-2.754,0v-.459H7.811v.459a1.377,1.377,0,1,1-2.754,0v-.459H4.631a.308.308,0,0,1-.308-.309l0-3.622a1.491,1.491,0,0,1,1.256-1.471A1.509,1.509,0,0,1,5.81,18.6H6.23L6.7,17.1c.339-1.077.838-1.6,1.524-1.6h5.616c.685,0,1.184.523,1.524,1.6l.47,1.494h.421a1.488,1.488,0,0,1,1.488,1.489v1.5h1.315a1.1,1.1,0,0,0,1.1-1.1V13.925a1.1,1.1,0,0,0-1.1-1.1H14.947a1.616,1.616,0,0,1-1.582,1.305H11.646a.308.308,0,0,1-.308-.308v-.384h-1a.309.309,0,1,1,0-.618h1v-.608h-1a.309.309,0,1,1,0-.618h1v-.383a.308.308,0,0,1,.308-.308h1.719a1.615,1.615,0,0,1,1.582,1.305h4.111a1.713,1.713,0,0,1,1.713,1.712ZM7.431,20.881a.834.834,0,1,0-.834.835A.835.835,0,0,0,7.431,20.881Zm7.2-2.285L14.2,17.419s0-.009,0-.013c-.244-.777-.454-.893-.557-.893H8.421c-.1,0-.312.116-.556.893,0,0,0,.008,0,.013L7.436,18.6ZM16.3,20.881a.834.834,0,1,0-.835.835A.835.835,0,0,0,16.3,20.881Z" transform="translate(0 0)" fill="#fff"/>
    </g>
  </g>
</svg>
