<svg xmlns="http://www.w3.org/2000/svg" width="32.282" height="30.815" viewBox="0 0 32.282 30.815">
  <g id="Total_EV_Discussion_Board" data-name="Total EV Discussion Board" transform="translate(-390.089 -457.964)">
    <g id="Rectangle_16" data-name="Rectangle 16" transform="translate(390.089 457.964)" fill="none" stroke="#fff" stroke-width="1">
      <rect width="32.282" height="30.815" rx="4" stroke="none"/>
      <rect x="0.5" y="0.5" width="31.282" height="29.815" rx="3.5" fill="none"/>
    </g>
    <g id="noun-forum-6263685" transform="translate(396.947 454.12)">
      <path id="Path_52" data-name="Path 52" d="M6.481,16.085H8.267v1.249a.286.286,0,0,0,.489.2l1.452-1.452H12.9a.857.857,0,0,0,.856-.857V13.1a.857.857,0,0,0-.856-.856H6.481a.857.857,0,0,0-.856.856v2.13A.857.857,0,0,0,6.481,16.085Zm5.489-2.5a.578.578,0,1,1-.577.578A.579.579,0,0,1,11.97,13.586Zm-2.28,0a.578.578,0,1,1-.578.578A.578.578,0,0,1,9.69,13.586Zm-2.282,0a.578.578,0,1,1-.578.578A.579.579,0,0,1,7.408,13.586Zm5.759,11.2v1.19a.286.286,0,0,1-.286.286H6.5a.286.286,0,0,1-.286-.286v-1.19c0-.408.2-.978,1.175-1.38a4.848,4.848,0,0,1,.947-.273L9.441,25.05a.286.286,0,0,0,.5,0l1.116-1.918a4.792,4.792,0,0,1,.941.272C12.964,23.806,13.167,24.377,13.167,24.785ZM9.689,18.626a1.987,1.987,0,0,1,1.818,2.118,1.987,1.987,0,0,1-1.818,2.118,1.987,1.987,0,0,1-1.818-2.118A1.987,1.987,0,0,1,9.689,18.626ZM7.17,22.892H.786A.286.286,0,0,1,.5,22.606v-1.19c0-.408.2-.978,1.175-1.38a4.848,4.848,0,0,1,.946-.273l.306.53.8,1.389a.287.287,0,0,0,.5,0l.806-1.389.307-.529a4.827,4.827,0,0,1,.943.272c.97.4,1.173.973,1.173,1.38v1.19A.286.286,0,0,1,7.17,22.892ZM2.16,17.376a1.988,1.988,0,0,1,1.818-2.119A1.988,1.988,0,0,1,5.8,17.376a1.987,1.987,0,0,1-1.818,2.118A1.987,1.987,0,0,1,2.16,17.376Zm16.719,3.956v1.19a.287.287,0,0,1-.286.286H12.208a.286.286,0,0,1-.286-.286v-1.19c0-.408.2-.978,1.175-1.38a4.838,4.838,0,0,1,.944-.273L15.153,21.6a.286.286,0,0,0,.5,0l1.111-1.919a4.815,4.815,0,0,1,.945.273C18.675,20.353,18.879,20.924,18.879,21.332Zm-5.3-4.04A1.988,1.988,0,0,1,15.4,15.173a1.988,1.988,0,0,1,1.818,2.119A1.987,1.987,0,0,1,15.4,19.41,1.987,1.987,0,0,1,13.583,17.292Z" transform="translate(-0.407)" fill="#fff"/>
    </g>
  </g>
</svg>
