<svg xmlns="http://www.w3.org/2000/svg" width="32.282" height="30.815" viewBox="0 0 32.282 30.815">
  <g id="Total_Active_Offer" data-name="Total Active Offer" transform="translate(-390.089 -457.964)">
    <g id="Rectangle_16" data-name="Rectangle 16" transform="translate(390.089 457.964)" fill="none" stroke="#fff" stroke-width="1">
      <rect width="32.282" height="30.815" rx="4" stroke="none"/>
      <rect x="0.5" y="0.5" width="31.282" height="29.815" rx="3.5" fill="none"/>
    </g>
    <g id="noun-offer-2743024" transform="translate(391.632 458.774)">
      <g id="Group_42" data-name="Group 42" transform="translate(5 5)">
        <ellipse id="Ellipse_6" data-name="Ellipse 6" cx="0.895" cy="1.79" rx="0.895" ry="1.79" transform="translate(11.388 10.493)" fill="#fff"/>
        <ellipse id="Ellipse_7" data-name="Ellipse 7" cx="0.895" cy="1.79" rx="0.895" ry="1.79" transform="translate(6.017 5.121)" fill="#fff"/>
        <path id="Path_69" data-name="Path 69" d="M23.185,13.189c-.3-.238-.63-.507-.683-.71a2.192,2.192,0,0,1,.242-1,2,2,0,0,0,.169-1.685c-.292-.5-.937-.6-1.559-.7a2.212,2.212,0,0,1-.971-.284,2.167,2.167,0,0,1-.28-.971c-.1-.622-.2-1.263-.7-1.555a2,2,0,0,0-1.685.165,2.192,2.192,0,0,1-1,.242c-.2-.054-.472-.388-.71-.683C15.626,5.537,15.192,5,14.6,5s-1.025.537-1.405,1.01c-.242.3-.511.63-.71.683a2.166,2.166,0,0,1-1-.242A1.976,1.976,0,0,0,9.8,6.286c-.5.288-.607.933-.7,1.555a2.168,2.168,0,0,1-.28.971,2.229,2.229,0,0,1-.971.284c-.622.1-1.267.2-1.559.7a2,2,0,0,0,.169,1.685,2.191,2.191,0,0,1,.242,1c-.054.2-.392.472-.687.71C5.537,13.569,5,14,5,14.6s.537,1.025,1.01,1.409c.3.238.633.507.687.706a2.246,2.246,0,0,1-.242,1A1.994,1.994,0,0,0,6.286,19.4c.292.5.937.607,1.559.7a2.184,2.184,0,0,1,.971.28,2.2,2.2,0,0,1,.28.971c.1.622.2,1.267.7,1.559a1.979,1.979,0,0,0,1.681-.169,2.268,2.268,0,0,1,1-.242c.2.058.468.392.71.687.38.472.81,1.01,1.405,1.01s1.029-.537,1.409-1.01c.238-.3.511-.63.71-.687a2.243,2.243,0,0,1,1,.242,1.988,1.988,0,0,0,1.685.169c.5-.292.6-.937.7-1.559a2.2,2.2,0,0,1,.28-.971,2.218,2.218,0,0,1,.971-.28c.622-.1,1.267-.2,1.559-.7a1.994,1.994,0,0,0-.169-1.681,2.192,2.192,0,0,1-.242-1c.054-.2.388-.472.683-.71.476-.384,1.01-.814,1.01-1.409S23.661,13.569,23.185,13.189ZM11.912,9.606a2.14,2.14,0,0,1,1.919,2.3,2.14,2.14,0,0,1-1.919,2.3,2.14,2.14,0,0,1-1.919-2.3A2.14,2.14,0,0,1,11.912,9.606Zm-.88,9.1a.384.384,0,0,1-.543-.543l7.678-7.678a.384.384,0,0,1,.543.543Zm6.255.88a2.14,2.14,0,0,1-1.919-2.3,2.14,2.14,0,0,1,1.919-2.3,2.14,2.14,0,0,1,1.919,2.3A2.14,2.14,0,0,1,17.286,19.587Z" transform="translate(-5 -5)" fill="#fff"/>
      </g>
    </g>
  </g>
</svg>
