<svg xmlns="http://www.w3.org/2000/svg" width="32.282" height="30.815" viewBox="0 0 32.282 30.815">
  <g id="Total_Register_Your_Intrest" data-name="Total Register Your Intrest" transform="translate(-390.089 -457.964)">
    <g id="Rectangle_16" data-name="Rectangle 16" transform="translate(390.089 457.964)" fill="none" stroke="#fff" stroke-width="1">
      <rect width="32.282" height="30.815" rx="4" stroke="none"/>
      <rect x="0.5" y="0.5" width="31.282" height="29.815" rx="3.5" fill="none"/>
    </g>
    <g id="noun-register-5288905" transform="translate(339.98 439.62)">
      <g id="Group_43" data-name="Group 43" transform="translate(58.67 23.72)">
        <path id="Path_70" data-name="Path 70" d="M71.019,23.72a2.811,2.811,0,1,0,1.988,4.8l.024-.022a2.813,2.813,0,0,0-.024-3.953l-.022-.024A2.806,2.806,0,0,0,71.019,23.72Zm-1.609,3.346a.466.466,0,1,1,.662-.658l.559.559L71.915,25.1a.466.466,0,0,1,.767.53l-1.6,2.32a.455.455,0,0,1-.06.074.467.467,0,0,1-.66,0Zm-2.12-.89H59.982a1.313,1.313,0,0,0-1.312,1.312V42.472a1.313,1.313,0,0,0,1.312,1.312H70.329a1.313,1.313,0,0,0,1.312-1.312V30.225a3.8,3.8,0,0,1-.623.052,3.745,3.745,0,0,1-3.746-3.746c0-.119.006-.238.017-.354ZM60.265,42.824a.468.468,0,0,1,0-.936h1.344a.468.468,0,0,1,0,.936Zm3.01,0a.468.468,0,1,1,0-.936h6.773a.468.468,0,0,1,0,.936ZM60.265,41a.468.468,0,0,1,0-.936h1.344a.468.468,0,0,1,0,.936Zm3.01,0a.468.468,0,1,1,0-.936h6.773a.468.468,0,0,1,0,.936Zm-3.01-1.828a.468.468,0,1,1,0-.936h1.344a.468.468,0,1,1,0,.936Zm3.01,0a.468.468,0,1,1,0-.936h6.773a.468.468,0,0,1,0,.936Zm-3.01-1.828a.468.468,0,0,1,0-.936h1.344a.468.468,0,0,1,0,.936Zm3.01,0a.468.468,0,1,1,0-.936h6.773a.468.468,0,0,1,0,.936Zm4.657-3.087a.468.468,0,0,1-.936,0v-.232a1.9,1.9,0,0,0-3.8,0v.232a.468.468,0,0,1-.936,0v-.232a2.835,2.835,0,0,1,5.67,0v.232ZM65.1,27.135a1.781,1.781,0,1,1-1.259,3.04l-.028-.031A1.779,1.779,0,0,1,65.1,27.135Zm.6,1.183A.846.846,0,0,0,64.479,29.5l.02.019a.846.846,0,1,0,1.2-1.2Z" transform="translate(-58.67 -23.72)" fill="#fff"/>
      </g>
    </g>
  </g>
</svg>
