<svg xmlns="http://www.w3.org/2000/svg" width="32.282" height="30.815" viewBox="0 0 32.282 30.815">
  <g id="Total_App_Sign_Up" data-name="Total App Sign Up" transform="translate(-390.089 -457.964)">
    <g id="Rectangle_16" data-name="Rectangle 16" transform="translate(390.089 457.964)" fill="none" stroke="#fff" stroke-width="1">
      <rect width="32.282" height="30.815" rx="4" stroke="none"/>
      <rect x="0.5" y="0.5" width="31.282" height="29.815" rx="3.5" fill="none"/>
    </g>
    <g id="noun-application-162372" transform="translate(394.961 457.119)">
      <path id="Path_7" data-name="Path 7" d="M16.783,2.252H4.258A2.039,2.039,0,0,0,2.219,4.292V16.735a2.039,2.039,0,0,0,2.039,2.039H16.783a2.04,2.04,0,0,0,2.04-2.039V4.292A2.04,2.04,0,0,0,16.783,2.252ZM4.159,11.78q0-.819,0-1.637a.291.291,0,0,1,.317-.326q1.478,0,2.956,0c.012,0,.023,0,.056.006-.023.046-.039.08-.057.113q-.6,1.045-1.2,2.09a.163.163,0,0,1-.164.1c-.522,0-1.044,0-1.566,0A.3.3,0,0,1,4.159,11.78Zm2.181,3.58q-.492.342-.993.671a.164.164,0,0,1-.138.021c-.038-.022-.051-.085-.063-.106.049-.418.092-.8.142-1.188a.164.164,0,0,1,.259-.134q.4.216.785.448A.159.159,0,0,1,6.341,15.36Zm.334-.593a.684.684,0,0,1-.125-.046q-.36-.2-.715-.408a.284.284,0,0,1-.114-.43q1.728-3,3.457-5.993a.289.289,0,0,1,.438-.12q.349.2.7.4a.29.29,0,0,1,.118.447L6.979,14.6A.312.312,0,0,1,6.675,14.767Zm2.556-2.654c.023-.043.04-.077.059-.11.4-.693.8-1.385,1.2-2.08a.186.186,0,0,1,.194-.109c.184.007.369,0,.553,0a.143.143,0,0,1,.107.062q.521,1.1,1.034,2.2a.094.094,0,0,1,0,.029Zm4.189.55c-.161-.292-.334-.578-.479-.877-.911-1.88-1.744-3.8-2.541-5.727a8.851,8.851,0,0,1-.265-.852.677.677,0,0,1-.019-.129.4.4,0,0,1,0-.1c.021-.052.036-.121.076-.144s.108.016.14.05a2.509,2.509,0,0,1,.3.361c.3.474.584.957.881,1.433,1.087,1.745,2.054,3.558,3.008,5.378a.4.4,0,0,1-.084.55.845.845,0,0,1-.7.273A.413.413,0,0,1,13.42,12.663ZM14.54,14.4q-.237-.357-.46-.724a.272.272,0,0,1,.117-.407c.138-.074.277-.146.418-.214a.308.308,0,0,1,.425.129c.126.23.245.464.364.7a.747.747,0,0,1,.041.126.353.353,0,0,1-.157.308c-.1.065-.207.128-.313.186A.313.313,0,0,1,14.54,14.4Zm1.242,1.564c-.15-.077-.306-.141-.451-.226a.891.891,0,0,1-.39-.471.461.461,0,0,1,.193-.574,1.2,1.2,0,0,1,.384-.136.432.432,0,0,1,.484.257,2.048,2.048,0,0,1,.177.567c.039.273.036.551.051.824C16.062,16.111,15.923,16.034,15.782,15.961Zm1.1-4.178a.294.294,0,0,1-.33.336H15.111L13.9,9.822c.052,0,.089-.006.126-.006h2.509c.243,0,.35.109.35.354Q16.883,10.977,16.882,11.784Z" transform="translate(0.748 5.739)" fill="#fff"/>
    </g>
  </g>
</svg>
