<svg xmlns="http://www.w3.org/2000/svg" width="32.282" height="30.815" viewBox="0 0 32.282 30.815">
  <g id="Total_EV_Buy_Sell" data-name="Total EV Buy &amp; Sell" transform="translate(-390.089 -457.964)">
    <g id="Rectangle_16" data-name="Rectangle 16" transform="translate(390.089 457.964)" fill="none" stroke="#fff" stroke-width="1">
      <rect width="32.282" height="30.815" rx="4" stroke="none"/>
      <rect x="0.5" y="0.5" width="31.282" height="29.815" rx="3.5" fill="none"/>
    </g>
    <g id="noun-car-dealer-893079" transform="translate(378.272 443.772)">
      <g id="Group_40" data-name="Group 40" transform="translate(17.7 19.7)">
        <g id="Group_38" data-name="Group 38" transform="translate(1.111 11.626)">
          <path id="Path_54" data-name="Path 54" d="M25.143,85.541l.787-.841H24.088a.176.176,0,0,0-.161.25l.215.483a.172.172,0,0,0,.161.107Z" transform="translate(-23.911 -84.7)" fill="#fff"/>
        </g>
        <g id="Group_39" data-name="Group 39" transform="translate(17.331 11.626)">
          <path id="Path_55" data-name="Path 55" d="M116.424,85.433l.215-.483a.176.176,0,0,0-.161-.25H114.6l.787.841h.859A.189.189,0,0,0,116.424,85.433Z" transform="translate(-114.6 -84.7)" fill="#fff"/>
        </g>
        <path id="Path_56" data-name="Path 56" d="M37.929,121.9H35.872a.5.5,0,0,0,.233-.429V120.7h-3v.769a.5.5,0,0,0,.233.429H22.547a.5.5,0,0,0,.233-.429V120.7H19.757v.769a.5.5,0,0,0,.233.429H17.968a.268.268,0,1,0,0,.537H37.947a.275.275,0,0,0,.268-.268A.279.279,0,0,0,37.929,121.9Z" transform="translate(-17.7 -102.635)" fill="#fff"/>
        <path id="Path_57" data-name="Path 57" d="M43.738,77.538,40.59,74.176A1.2,1.2,0,0,0,39.7,73.8H31.164a1.273,1.273,0,0,0-.894.376l-3.148,3.363a1.121,1.121,0,0,0-.322.8l.447,3.488H43.631l.447-3.488A1.312,1.312,0,0,0,43.738,77.538ZM31.182,74.712a.2.2,0,0,1,.143-.054h8.21a.2.2,0,0,1,.143.054l1.4,1.592H29.8Zm.751,4.436H29.071a.179.179,0,0,1-.179-.179v-.393a.174.174,0,0,1,.2-.179l2.844.376a.173.173,0,0,1,.143.125v.018A.158.158,0,0,1,31.933,79.148Zm10.052-.179a.192.192,0,0,1-.179.179H38.944a.185.185,0,0,1-.179-.233V78.9a.173.173,0,0,1,.143-.125l2.844-.376a.174.174,0,0,1,.2.179v.393Z" transform="translate(-25.172 -64.124)" fill="#fff"/>
        <path id="Path_58" data-name="Path 58" d="M60.934,23.6a3.917,3.917,0,1,0-4.185,3.9v1.52h.537V27.5A3.923,3.923,0,0,0,60.934,23.6Zm-3.9,2.719a.275.275,0,0,1-.268-.268v-.465H56.23a.268.268,0,1,1,0-.537H57.3a.59.59,0,1,0,0-1.18h-.537a1.127,1.127,0,1,1,0-2.254v-.465a.268.268,0,1,1,.537,0v.465h.537a.268.268,0,1,1,0,.537H56.767a.59.59,0,1,0,0,1.18H57.3a1.127,1.127,0,1,1,0,2.254v.465A.275.275,0,0,1,57.035,26.318Z" transform="translate(-46.768 -19.7)" fill="#fff"/>
      </g>
    </g>
  </g>
</svg>
