<svg xmlns="http://www.w3.org/2000/svg" width="32.282" height="30.815" viewBox="0 0 32.282 30.815">
  <g id="Total_Electric_Bike_Leasing" data-name="Total Electric Bike Leasing" transform="translate(-390.089 -457.964)">
    <g id="Rectangle_16" data-name="Rectangle 16" transform="translate(390.089 457.964)" fill="none" stroke="#fff" stroke-width="1">
      <rect width="32.282" height="30.815" rx="4" stroke="none"/>
      <rect x="0.5" y="0.5" width="31.282" height="29.815" rx="3.5" fill="none"/>
    </g>
    <g id="noun-electric-motorcycle-4394230" transform="translate(395.477 370.947)">
      <g id="Group_34" data-name="Group 34" transform="translate(-0.057 87.171)">
        <g id="Group_33" data-name="Group 33" transform="translate(0 9.254)">
          <path id="Path_26" data-name="Path 26" d="M384.726,689.815l-.133.015-2.07.235.022.016-.258.01h0l-.634.072a1.9,1.9,0,0,1-.583-.024h0l-2.674.106-.13.005-.13.005-.064.25.113.027.008,0,.121.029.145.034a1.1,1.1,0,0,1-.252,2.168,1.083,1.083,0,0,1-.254-.03l-.183-.043-.113-.027-.008,0-.121-.029h0l-.083.325a.36.36,0,0,0,.3.446l4.869.635a1.158,1.158,0,0,0,.15.01,1.2,1.2,0,0,0,1.146-.867l.948-3.384Zm-2.445,3.234-2.721-.351.1-.741,2.721.351Zm.432-1.5-2.4-.309.1-.741,2.4.309Z" transform="translate(-369.975 -684.093)" fill="#fff"/>
          <path id="Path_27" data-name="Path 27" d="M84.912,660.793a3.457,3.457,0,1,1-.991-2.459.843.843,0,0,0-.337.089h0l-.031.016-.02.01-.625.317a2.46,2.46,0,1,0,1.012,1.989c0-.037,0-.075,0-.112l.135-.056.189.045Z" transform="translate(-78 -652.403)" fill="#fff"/>
          <path id="Path_28" data-name="Path 28" d="M598.37,469.144a3.3,3.3,0,1,1-5.242-2.677l.585.807a2.308,2.308,0,1,0,1.353-.438,2.289,2.289,0,0,0-.448.044l1.071,2.107-.666.339-3.314-6.521-.5-1a.368.368,0,0,0-.278-.2l-.394-.054-1.042-.126.089-.742,1.051.127.4.054a1.114,1.114,0,0,1,.844.6l.209.412,1.051-.306a.524.524,0,0,1,.671.5v2.2a.525.525,0,0,1-.273.46l.625,1.23a3.306,3.306,0,0,1,4.216,3.177Z" transform="translate(-576.75 -460.69)" fill="#fff"/>
          <path id="Path_29" data-name="Path 29" d="M198.256,719.915a.608.608,0,0,1-.016.139c0,.017-.009.034-.014.051l-.009.024c-.006.016-.013.032-.02.047s-.017.033-.027.049l0,0-.014.021-.015.021,0,.005-.01.013-.009.011-.014.016-.019.02-.02.019c-.012.011-.025.022-.038.032l-.03.022-.031.02-.024.013-.017.009-.031.014-.037.015h0l-.022.008-.018,0-.014,0-.02,0-.04.007-.016,0-.041,0h-.024a.594.594,0,0,1-.139-.016l-.174-.041-.121-.029-.121-.029h0l-.8-.189-.527-.125-.346-.082-.755.313-1.744.724-.017.006-.017.006-.017.005-.017,0-.031.006h0l-.013,0h-.1l-.027,0h-.007l-.026,0-.015,0-.033-.009h0l-.011,0-.012,0-.03-.012h0l-.03-.015a.48.48,0,0,1-.083-.057l-.025-.023-.012-.012-.023-.025,0-.006-.016-.021-.014-.021-.008-.013a.465.465,0,0,1-.022-.042.478.478,0,0,1,.218-.626l1.606-.815.584-.3.457-.232.021-.011.032-.016a.343.343,0,0,1,.153-.036.334.334,0,0,1,.078.009l1.934.458.121.029.121.029.153.036A.6.6,0,0,1,198.256,719.915Z" transform="translate(-189.424 -712.342)" fill="#fff"/>
          <path id="Path_30" data-name="Path 30" d="M181.639,553.711h-.026l-.03-.007.028.007-.96.038-2.608.1h-.179l-.04,0-.071-.007-.035,0-.045-.006-.02,0-.03-.005-.024,0-.039-.008-.047-.011h0l-.034-.009-.039-.011-.053-.016-.01,0-.053-.017-.076-.028-.033-.013-.008,0h0l-.028-.012-.041-.018-.073-.036-.071-.039-.028-.016-.028-.017h0l-.033-.021-.029-.019-.034-.023-.05-.035-1.066-.786a5.351,5.351,0,0,0-1.366-.73l-.488-.176a.618.618,0,0,1-.3-.23l-.716-1.034a.066.066,0,0,1-.008-.017.056.056,0,0,1,0-.009.037.037,0,0,1,0-.007.059.059,0,0,1,0-.013s0,0,0,0l0-.006a.035.035,0,0,1,0-.008l0,0,0,0,.01-.012,0,0h0l.008-.005.007,0,.007,0,.009,0h.014l1.908.2a2.259,2.259,0,0,1,1.075.4l.3.216h0l.163.116a.738.738,0,0,0,.283.811l.722.511a1.517,1.517,0,0,0,.882.28h.015l1.447-.045.2-.006.513-.016.1,0h0Z" transform="translate(-170.475 -548.165)" fill="#fff"/>
          <path id="Path_31" data-name="Path 31" d="M437.909,535.2l-2.252.255h-.01l-.876.07h0l-.475-.361-1.726-1.312-.833-.759a1.143,1.143,0,0,0-.1-.08l1.066-.7.05-.032.033-.02.032-.019.036-.021.044-.025.01-.005.048-.026.035-.018.025-.013,0,0,.007,0,.071-.034,0,0,.061-.028.066-.028.047-.019.051-.02h0l.11-.039.056-.018.056-.017.112-.031.113-.027q.113-.025.228-.042h0l.342,0v-.034a3.209,3.209,0,0,1,.4.009c.047,0,.093.009.139.015s.093.013.139.021l1.8.316a.816.816,0,0,1,.587.435l.922,1.817A.55.55,0,0,1,437.909,535.2Z" transform="translate(-422.831 -530.012)" fill="#fff"/>
          <path id="Path_32" data-name="Path 32" d="M336.049,587.421l-.715.022-.934.029a1.028,1.028,0,0,1-.594-.189l-.722-.511a.243.243,0,0,1,.138-.442h.024l.088.007h0l1.42.115h.009a.748.748,0,0,1,.437.192l.162.147.005.005h0l0,0,.151.138h0Z" transform="translate(-326.629 -583.2)" fill="#fff"/>
        </g>
      </g>
    </g>
  </g>
</svg>
