<svg xmlns="http://www.w3.org/2000/svg" width="32.282" height="30.815" viewBox="0 0 32.282 30.815">
  <g id="Total_Public_Chargers" data-name="Total Public Chargers" transform="translate(-390.089 -457.964)">
    <g id="Rectangle_16" data-name="Rectangle 16" transform="translate(390.089 457.964)" fill="none" stroke="#fff" stroke-width="1">
      <rect width="32.282" height="30.815" rx="4" stroke="none"/>
      <rect x="0.5" y="0.5" width="31.282" height="29.815" rx="3.5" fill="none"/>
    </g>
    <g id="noun-charging-station-6677804" transform="translate(398.228 461.676)">
      <g id="Group_32" data-name="Group 32" transform="translate(0.124 4.398)">
        <path id="Path_22" data-name="Path 22" d="M50.3,44.572a.154.154,0,0,0-.144-.1H47.4a.155.155,0,0,0-.145.1,6.8,6.8,0,0,0,0,4.887.155.155,0,0,0,.145.1h.709v1.717H47.4a.155.155,0,1,0,0,.311h2.757a.155.155,0,0,0,0-.311h-.71V49.559H50v.777a.155.155,0,0,0,.156.155h1.55a.155.155,0,0,0,.156-.155V47.2a.124.124,0,0,0,.033-.016l.809-.5a.154.154,0,0,0,.074-.132v-.98a.156.156,0,0,0-.155-.156h-.916a.156.156,0,0,0-.155.156V50.18h-1.24v-.749a6.8,6.8,0,0,0-.011-4.859Zm-.918,2.533-.723,1.021h0a.155.155,0,1,1-.253-.179l.549-.776H48.3a.156.156,0,0,1-.127-.245l.723-1.021h0a.154.154,0,0,1,.1-.063.151.151,0,0,1,.116.026.155.155,0,0,1,.037.216l-.55.776h.656a.156.156,0,0,1,.138.084.154.154,0,0,1-.011.161Z" transform="translate(-39.436 -38.059)" fill="#fff"/>
        <path id="Path_23" data-name="Path 23" d="M16.3,4.4H2.265A1.493,1.493,0,0,0,.774,5.889V7.3a.233.233,0,0,0,.233.233H16.063v11H1.007a.233.233,0,1,0,0,.466H16.3a.233.233,0,0,0,.233-.233V4.631A.233.233,0,0,0,16.3,4.4Z" transform="translate(-0.774 -4.398)" fill="#fff"/>
        <path id="Path_24" data-name="Path 24" d="M4.755,44.526a.156.156,0,0,0-.145-.1H1.853a.157.157,0,0,0-.146.1,6.806,6.806,0,0,0,0,4.887.157.157,0,0,0,.146.1h.709V51.23H1.853a.155.155,0,1,0,0,.311H4.61a.155.155,0,1,0,0-.311H3.9V49.513h.554v.777a.156.156,0,0,0,.155.155h1.55a.155.155,0,0,0,.11-.046.153.153,0,0,0,.045-.109V47.149a.138.138,0,0,0,.034-.016l.809-.5h0a.157.157,0,0,0,.074-.133v-.98a.155.155,0,0,0-.046-.11.152.152,0,0,0-.109-.045H6.161A.155.155,0,0,0,6,45.523v4.611H4.766v-.749a6.8,6.8,0,0,0-.011-4.859ZM3.837,47.06l-.723,1.021a.155.155,0,0,1-.127.066.152.152,0,0,1-.089-.029A.155.155,0,0,1,2.86,47.9l.55-.776H2.753a.155.155,0,0,1-.127-.245l.723-1.021a.155.155,0,1,1,.253.179l-.549.776H3.71a.156.156,0,0,1,.127.246Z" transform="translate(-1.177 -38.02)" fill="#fff"/>
      </g>
    </g>
  </g>
</svg>
