<svg xmlns="http://www.w3.org/2000/svg" width="32.282" height="30.815" viewBox="0 0 32.282 30.815">
  <g id="Total_Pick_Drop" data-name="Total Pick &amp; Drop" transform="translate(-390.089 -457.964)">
    <g id="Rectangle_16" data-name="Rectangle 16" transform="translate(390.089 457.964)" fill="none" stroke="#fff" stroke-width="1">
      <rect width="32.282" height="30.815" rx="4" stroke="none"/>
      <rect x="0.5" y="0.5" width="31.282" height="29.815" rx="3.5" fill="none"/>
    </g>
    <g id="noun-driver-3917676" transform="translate(387.191 458.585)">
      <g id="Group_31" data-name="Group 31" transform="translate(11.014 4.751)">
        <path id="Path_12" data-name="Path 12" d="M42.349,48.718a.237.237,0,0,1,.02.2.241.241,0,0,1-.18.15l-1.059.2.575,1.124a.241.241,0,0,1-.111.327,21.022,21.022,0,0,0-3.107,1.84v2.074a15.8,15.8,0,0,0,7.226-2.511C45.36,50.4,44.068,49.517,42.349,48.718Z" transform="translate(-29.663 -34.598)" fill="#fff"/>
        <path id="Path_13" data-name="Path 13" d="M31.053,50.128A28.243,28.243,0,0,0,32.3,52.792l.167.318c.077.146.134.256.179.345a34.418,34.418,0,0,0,1.584-3.319A2.706,2.706,0,0,1,31.053,50.128Z" transform="translate(-24.618 -35.555)" fill="#fff"/>
        <path id="Path_14" data-name="Path 14" d="M35.537,61.987a.241.241,0,0,1-.086.016H35.2a.24.24,0,0,1-.086-.016.243.243,0,0,1-.075-.046l-.029-.025v1.711h.082q.238,0,.461,0l.093,0V61.915l-.029.026A.242.242,0,0,1,35.537,61.987Z" transform="translate(-27.301 -43.557)" fill="#fff"/>
        <path id="Path_15" data-name="Path 15" d="M15.009,50.581a.241.241,0,0,1,.013-.187l.572-1.125-1.057-.2a.24.24,0,0,1-.18-.15.237.237,0,0,1,.02-.2c-1.723.8-3.017,1.686-3.363,3.409l.02.013c.1.063.2.126.293.187s.174.107.26.156a14.51,14.51,0,0,0,6.65,2.163V52.561a21.056,21.056,0,0,0-3.1-1.84A.242.242,0,0,1,15.009,50.581Z" transform="translate(-11.014 -34.597)" fill="#fff"/>
        <path id="Path_16" data-name="Path 16" d="M29.385,23.292v-.048a.946.946,0,0,0,0-1.882V21l.051-.022a.236.236,0,0,0,.141-.218v-.883a.241.241,0,0,0-.241-.241H20.771a.241.241,0,0,0-.241.241v.883a.236.236,0,0,0,.141.218l.055.023v.356a.946.946,0,0,0,0,1.882v.164a4.4,4.4,0,0,0,1.358,3.174c.08.076.164.146.248.215v.7a13.606,13.606,0,0,0-.958,1.015l0,.006s0,.008-.007.011l0,0c-.125.148-.237.285-.327.4l.984.187a.241.241,0,0,1,.17.346l-.607,1.192a21.748,21.748,0,0,1,2.64,1.543,24.59,24.59,0,0,1-1.4-3.149V27.14a4.258,4.258,0,0,0,2.452.625,4.122,4.122,0,0,0,2.116-.711v1.739a23.479,23.479,0,0,1-1.49,3.4,21.734,21.734,0,0,1,2.639-1.54l-.609-1.192a.241.241,0,0,1,.17-.346l.986-.187c-.094-.118-.211-.261-.344-.418-.313-.363-.6-.671-.87-.929v-.9A4.562,4.562,0,0,0,29.385,23.292Zm-4.142,3.992a3.788,3.788,0,0,1-2.826-1.051,3.865,3.865,0,0,1-1.208-2.825v-2.2a10.127,10.127,0,0,0,7.695,0v2.083A3.963,3.963,0,0,1,25.243,27.284Z" transform="translate(-17.03 -14.859)" fill="#fff"/>
        <path id="Path_17" data-name="Path 17" d="M29.535,29.268a.241.241,0,0,0,.09-.328.8.8,0,0,0-1.382,0,.241.241,0,1,0,.418.238.325.325,0,0,1,.546,0A.241.241,0,0,0,29.535,29.268Z" transform="translate(-22.688 -20.898)" fill="#fff"/>
        <path id="Path_18" data-name="Path 18" d="M39.322,28.939a.241.241,0,1,0,.418.238.324.324,0,0,1,.545,0,.241.241,0,1,0,.418-.238A.8.8,0,0,0,39.322,28.939Z" transform="translate(-30.209 -20.898)" fill="#fff"/>
        <path id="Path_19" data-name="Path 19" d="M35.327,35.037a.241.241,0,1,0-.341-.341.19.19,0,0,1-.263,0,.241.241,0,0,0-.341.341A.667.667,0,0,0,35.327,35.037Z" transform="translate(-26.83 -25.031)" fill="#fff"/>
        <path id="Path_20" data-name="Path 20" d="M34.377,37.325a.241.241,0,0,0-.318.121,1.047,1.047,0,0,1-1.745,0,.241.241,0,1,0-.439.2,1.519,1.519,0,0,0,2.623,0A.241.241,0,0,0,34.377,37.325Z" transform="translate(-25.161 -26.849)" fill="#fff"/>
        <path id="Path_21" data-name="Path 21" d="M18.743,9.51a.721.721,0,0,1,.671-.459h8.565a.721.721,0,0,1,.671.459,1.544,1.544,0,0,0,.867-1.246c0-1.355-2.662-3.513-5.819-3.513s-5.823,2.158-5.823,3.513A1.536,1.536,0,0,0,18.743,9.51Zm2.926-3.337h.678v.674h.674V6.173H23.7v.674h.674V6.173h.678v.674h.674v.678H25.05V6.848h-.678v.678H23.7V6.848H23.02v.678h-.674V6.848h-.678V6.173Z" transform="translate(-15.672 -4.751)" fill="#fff"/>
      </g>
    </g>
  </g>
</svg>
