<svg xmlns="http://www.w3.org/2000/svg" width="32.282" height="30.815" viewBox="0 0 32.282 30.815">
  <g id="Total_EV_Insurance" data-name="Total EV Insurance" transform="translate(-390.089 -457.964)">
    <g id="Rectangle_16" data-name="Rectangle 16" transform="translate(390.089 457.964)" fill="none" stroke="#fff" stroke-width="1">
      <rect width="32.282" height="30.815" rx="4" stroke="none"/>
      <rect x="0.5" y="0.5" width="31.282" height="29.815" rx="3.5" fill="none"/>
    </g>
    <g id="noun-insurance-6742857" transform="translate(386.191 451.731)">
      <path id="Path_53" data-name="Path 53" d="M21.529,16a3.9,3.9,0,0,0-4.606,5.941.326.326,0,0,1-.521.393,4.551,4.551,0,0,1,5.534-6.869.326.326,0,0,1,.613-.218l.321.836a.326.326,0,0,1-.268.467l-.919.076A.327.327,0,0,1,21.529,16Zm-1.668,4.788,1.756-1.915a.326.326,0,1,0-.481-.439l-1.546,1.686-.729-.729a.327.327,0,0,0-.462.462l.969.969a.326.326,0,0,0,.493-.034Zm2.475,7.031A4.176,4.176,0,0,0,20.4,31.237h5.232a19.134,19.134,0,0,1,1.4-1.975c.855-1.021,1.842-1.563,2.4-2.738.752-1.569.759-4.526.732-6.267-.019-1.182-1.147-1.079-1.21-.673l-.6,3.829A2.879,2.879,0,0,1,27.572,25l-.934,1a.926.926,0,0,1-.189,1.206l-2.638,2.022a.326.326,0,1,1-.4-.518l2.638-2.022c.161-.123.019-.421-.094-.512a1.321,1.321,0,0,0-1.107-.019Zm-2.66,3.418a4.171,4.171,0,0,0-1.935-3.419l-2.516-1.665a1.321,1.321,0,0,0-1.107.019c-.114.09-.255.388-.094.512L16.663,28.7a.326.326,0,0,1-.4.518L13.629,27.2A.926.926,0,0,1,13.44,26l-.934-1a2.883,2.883,0,0,1-.783-1.589l-.6-3.829c-.064-.407-1.191-.51-1.21.673-.029,1.741-.021,4.7.732,6.267.563,1.175,1.549,1.717,2.4,2.738a19.131,19.131,0,0,1,1.4,1.975Zm.362-14.33a2.725,2.725,0,1,0,2.725,2.725A2.724,2.724,0,0,0,20.039,16.906Zm0-4.862c-1.8,1.583-3.862,2.26-6.5,3.14a19.613,19.613,0,0,0,1.168,6.933,9.945,9.945,0,0,0,5.332,5.248,9.949,9.949,0,0,0,5.332-5.248,19.591,19.591,0,0,0,1.168-6.933l-.069-.023c-2.623-.875-4.648-1.551-6.431-3.118Zm3.887,7.834A3.9,3.9,0,0,1,18.55,23.2a.327.327,0,0,0-.154-.626l-.919.076a.326.326,0,0,0-.268.467l.321.836a.326.326,0,0,0,.613-.218,4.55,4.55,0,0,0,5.534-6.869.326.326,0,1,0-.521.393,3.9,3.9,0,0,1,.77,2.617Z" fill="#fff" fill-rule="evenodd"/>
    </g>
  </g>
</svg>
