<svg id="Total_App_Sign_Up" data-name="Total App Sign Up" xmlns="http://www.w3.org/2000/svg" width="92.79" height="92.793" viewBox="0 0 92.79 92.793">
  <g id="Rectangle_16" data-name="Rectangle 16" fill="none" stroke="#00b26b" stroke-width="3">
    <rect width="92.79" height="92.793" rx="11" stroke="none"/>
    <rect x="1.5" y="1.5" width="89.79" height="89.793" rx="9.5" fill="none"/>
  </g>
  <g id="noun-application-162372" transform="translate(21.394 21.519)">
    <g id="Path_7" data-name="Path 7" transform="translate(-2.219 -2.252)" fill="#00b26b">
      <path d="M 46.07674789428711 51.00666046142578 L 8.360239028930664 51.00666046142578 C 5.525218486785889 51.00666046142578 3.218758583068848 48.70019912719727 3.218758583068848 45.86516952514648 L 3.218758583068848 8.393678665161133 C 3.218758583068848 5.558659076690674 5.525218486785889 3.252198934555054 8.360239028930664 3.252198934555054 L 46.07738876342773 3.252198934555054 C 47.45071792602539 3.252198934555054 48.74184799194336 3.787028789520264 49.71291732788086 4.7581787109375 C 50.68404769897461 5.729378700256348 51.21886825561523 7.020719051361084 51.21886825561523 8.394329071044922 L 51.21886825561523 45.86516952514648 C 51.21886825561523 48.70019912719727 48.91211700439453 51.00666046142578 46.07674789428711 51.00666046142578 Z M 39.54074478149414 40.18620300292969 C 39.38814926147461 40.68638610839844 39.39632034301758 41.24443817138672 39.59346771240234 41.77977752685547 C 39.89823913574219 42.60752868652344 40.45322036743164 43.27687835693359 41.19838714599609 43.71540069580078 C 41.50668716430664 43.89743804931641 41.81727981567383 44.04434967041016 42.11763000488281 44.18642044067383 C 42.28841781616211 44.26720809936523 42.44972991943359 44.34350967407227 42.60524749755859 44.42362976074219 C 42.89482879638672 44.57263946533203 43.17903900146484 44.72715759277344 43.50811767578125 44.90607833862305 C 43.64590835571289 44.98098754882812 43.78928756713867 45.05893707275391 43.94083786010742 45.14069747924805 L 45.51139831542969 45.98793792724609 L 45.41412734985352 44.20608901977539 C 45.40132904052734 43.97150039672852 45.39310836791992 43.73699951171875 45.3843994140625 43.48873901367188 C 45.36332702636719 42.88772964477539 45.34153747558594 42.26625061035156 45.25072860717773 41.63602828979492 C 45.15750885009766 40.99216842651367 44.94960784912109 40.32350921630859 44.63270950317383 39.64797973632812 C 44.29222869873047 38.92142105102539 43.67656326293945 38.44229888916016 42.94062042236328 38.31169891357422 C 42.99725723266602 38.12287521362305 43.03177642822266 37.91764450073242 43.04396057128906 37.69640731811523 L 43.05413818359375 37.51154708862305 L 42.99860382080078 37.3388671875 C 42.99487686157227 37.32597351074219 42.99128341674805 37.31146240234375 42.98723983764648 37.29591751098633 C 42.95853042602539 37.18552017211914 42.91048049926758 37.00074005126953 42.81377792358398 36.81011962890625 L 42.74790954589844 36.68061065673828 C 42.41368865966797 36.0234489440918 42.06808853149414 35.34391784667969 41.70339965820312 34.67998886108398 C 41.37019729614258 34.07338333129883 40.78573226928711 33.69889450073242 40.12528991699219 33.66267776489258 C 40.26300430297852 33.45915603637695 40.37496566772461 33.22661209106445 40.43655014038086 32.96435546875 L 40.43771743774414 32.96656799316406 L 41.04072952270508 32.96656799316406 C 41.45195007324219 32.96656799316406 41.87112808227539 32.96673965454102 42.29592895507812 32.9669189453125 C 42.73252868652344 32.96709823608398 43.1750602722168 32.96727752685547 43.62094879150391 32.96727752685547 C 44.20494842529297 32.96727752685547 44.7947998046875 32.96696853637695 45.38441848754883 32.96592712402344 C 46.59297943115234 32.96355819702148 47.37451934814453 32.17448043823242 47.37569808959961 30.95564842224121 C 47.37666702270508 29.74311828613281 47.37654876708984 28.53073883056641 47.37641906738281 27.31863975524902 L 47.37633895874023 26.09479904174805 C 47.37521743774414 24.80286979675293 46.60788726806641 24.03140830993652 45.32374954223633 24.03026962280273 C 44.33519744873047 24.02949905395508 43.34681701660156 24.02923965454102 42.35825729370117 24.02923965454102 C 41.24746704101562 24.02923965454102 40.13656997680664 24.02956962585449 39.02579879760742 24.02990913391113 L 37.76696014404297 24.03026962280273 C 37.66719818115234 24.03026962280273 37.57793807983398 24.03537940979004 37.48344802856445 24.0407886505127 C 37.44108963012695 24.0432186126709 37.39518737792969 24.04585838317871 37.34375 24.04818916320801 L 36.31740188598633 24.09465789794922 C 34.6565055847168 21.05892181396484 32.91226959228516 18.00571823120117 31.06289863586426 15.03769874572754 C 30.6653881072998 14.39977931976318 30.26681900024414 13.74452877044678 29.8813591003418 13.11084842681885 C 29.4033088684082 12.32493877410889 28.90898895263672 11.51226902008057 28.40771865844727 10.71768856048584 C 28.11978912353516 10.26180839538574 27.7572193145752 9.874729156494141 27.43733787536621 9.533219337463379 L 27.38880920410156 9.481389045715332 C 27.11604881286621 9.192178726196289 26.67862892150879 8.999798774719238 26.2976188659668 8.999798774719238 C 26.09561920166016 8.999798774719238 25.90013885498047 9.051538467407227 25.73233795166016 9.149409294128418 C 25.31905937194824 9.391609191894531 25.17707824707031 9.795309066772461 25.10079956054688 10.01218891143799 C 25.09260940551758 10.03548908233643 25.08478927612305 10.058518409729 25.07630920410156 10.07994842529297 C 24.98067855834961 10.32284927368164 24.9919490814209 10.53275871276855 24.99867820739746 10.65817928314209 C 25.00057792663574 10.69353866577148 25.00221824645996 10.72407913208008 25.00221824645996 10.76058864593506 L 25.00221824645996 10.82663917541504 L 25.00918388366699 10.87910842895508 L 25.01088905334473 10.90050888061523 C 25.01936912536621 11.01069927215576 25.03515815734863 11.2158088684082 25.10157775878906 11.4372091293335 C 25.17137908935547 11.67124843597412 25.2366886138916 11.90640926361084 25.30581855773926 12.15537929534912 C 25.48275947570801 12.7925386428833 25.66572952270508 13.45138931274414 25.93172836303711 14.09629917144775 C 27.5011043548584 17.89987182617188 28.9671459197998 21.31882667541504 30.39616775512695 24.50261688232422 C 30.12324142456055 24.20055389404297 29.72001266479492 24.04981422424316 29.40091896057129 24.0386791229248 C 29.23013877868652 24.03286933898926 29.04982948303223 24.03028869628906 28.81538772583008 24.03028869628906 C 28.72410774230957 24.03028869628906 28.63277816772461 24.03066825866699 28.54145812988281 24.03103828430176 C 28.4528694152832 24.03140830993652 28.36427879333496 24.03176879882812 28.27572822570801 24.03176879882812 C 28.1270580291748 24.03176879882812 27.93143844604492 24.03085899353027 27.7366886138916 24.02378845214844 C 27.70978927612305 24.02278900146484 27.68264961242676 24.02227973937988 27.65608787536621 24.02227973937988 C 27.03621864318848 24.02227973937988 26.56236839294434 24.30254936218262 26.24771881103516 24.85530853271484 C 25.36870956420898 26.39909934997559 24.46476936340332 27.96443939208984 23.59058952331543 29.47824859619141 C 23.27584838867188 30.02326965332031 22.96110916137695 30.56830978393555 22.64676856994629 31.11360931396484 C 22.59884834289551 31.19692802429199 22.55810928344727 31.27452850341797 22.51498794555664 31.356689453125 C 22.49580955505371 31.39321899414062 22.47555923461914 31.43182945251465 22.45331954956055 31.473388671875 L 21.66592788696289 32.94512939453125 L 23.33505821228027 32.94512939453125 L 32.80204010009766 32.94512939453125 L 33.80204010009766 32.94512939453125 L 33.80204010009766 31.96342086791992 C 33.80451202392578 31.92482566833496 33.80745315551758 31.86102485656738 33.80012512207031 31.7813663482666 C 34.07022476196289 32.30804443359375 34.36017990112305 32.81917953491211 34.64239883422852 33.31668853759766 C 34.78532791137695 33.56866073608398 34.93313980102539 33.82921981811523 35.07405853271484 34.08443832397461 C 35.42590713500977 34.7216682434082 36.03208923339844 35.12960815429688 36.78093719482422 35.23307800292969 C 36.86675262451172 35.24509429931641 36.95369720458984 35.25358200073242 37.04047775268555 35.2584228515625 C 36.95561981201172 35.39846801757812 36.89075088500977 35.54878234863281 36.84803771972656 35.70669937133789 C 36.71852874755859 36.18549728393555 36.80143737792969 36.70314025878906 37.08147811889648 37.16424942016602 C 37.52877807617188 37.89955902099609 38.00198745727539 38.64399719238281 38.48832702636719 39.37749862670898 C 38.75209426879883 39.77539825439453 39.12017059326172 40.05453109741211 39.54074478149414 40.18620300292969 Z M 10.13003349304199 43.91063690185547 C 10.1920108795166 44.07686996459961 10.33517742156982 44.44831466674805 10.7266788482666 44.67332077026367 L 10.72930908203125 44.67482757568359 L 10.73194885253906 44.67633056640625 C 10.91283893585205 44.77883911132812 11.11764907836914 44.830810546875 11.34068870544434 44.830810546875 C 11.63372898101807 44.830810546875 11.95229911804199 44.73588943481445 12.19287872314453 44.57690048217773 C 13.30716896057129 43.84077835083008 14.29125881195068 43.17586898803711 15.20123863220215 42.54426956176758 C 15.65991878509521 42.22589874267578 15.91336822509766 41.75161743164062 15.89661884307861 41.24301910400391 C 15.89308643341064 41.13573455810547 15.8776683807373 41.03084945678711 15.85103797912598 40.92940521240234 C 16.36538124084473 40.88677597045898 16.99624443054199 40.66247940063477 17.42166900634766 39.92250823974609 C 18.96878814697266 37.23856735229492 20.51686859130859 34.55389785766602 22.06492805480957 31.86925888061523 C 23.98033905029297 28.54756927490234 25.89572906494141 25.22590827941895 27.81031799316406 21.90386962890625 C 28.41316795349121 20.85845947265625 28.13032913208008 19.79399871826172 27.08962821960449 19.1922492980957 C 26.40541839599609 18.79642868041992 25.6968879699707 18.39312934875488 24.98391914367676 17.99364852905273 C 24.63834953308105 17.7999382019043 24.28886795043945 17.70165824890137 23.94537925720215 17.70165824890137 C 23.55648803710938 17.70165824890137 22.82704925537109 17.8350887298584 22.31111907958984 18.72867965698242 C 21.31762313842773 20.44990921020508 20.26455688476562 22.27446746826172 19.16883659362793 24.17327117919922 L 18.20741844177246 24.05873870849609 C 18.17775917053223 24.05520820617676 18.15534782409668 24.05208969116211 18.13743782043457 24.04962921142578 C 18.08114814758301 24.04186820983887 18.01109886169434 24.03221893310547 17.92080879211426 24.03221893310547 L 16.255859375 24.03134918212891 C 15.06742858886719 24.03068923950195 13.87908840179443 24.03001976013184 12.69049835205078 24.03001976013184 C 11.46611881256104 24.03001976013184 10.24121856689453 24.03072929382324 9.016828536987305 24.03286933898926 C 7.849418640136719 24.03531837463379 7.064468860626221 24.83087921142578 7.063238620758057 26.01251792907715 C 7.060568809509277 27.6973991394043 7.061348438262939 29.37834930419922 7.062588691711426 30.94378852844238 C 7.062588691711426 32.18883895874023 7.834518432617188 32.96422958374023 9.077128410339355 32.96657943725586 L 9.502998352050781 32.96673965454102 C 9.836618423461914 32.96673965454102 10.17026901245117 32.96648025512695 10.50392913818359 32.96620941162109 C 10.8370885848999 32.96595001220703 11.17024898529053 32.96567916870117 11.50339889526367 32.96567916870117 C 12.1303186416626 32.96567916870117 12.95655822753906 32.96651840209961 13.78807830810547 32.97304916381836 L 13.80450820922852 32.97311019897461 C 13.90965461730957 32.97310638427734 14.01039123535156 32.96487808227539 14.10666084289551 32.94846343994141 C 13.376389503479 34.21485900878906 12.63932418823242 35.4932746887207 11.89947891235352 36.77680969238281 C 11.5730504989624 37.34335708618164 11.52031517028809 37.92952346801758 11.71541118621826 38.43779754638672 C 11.06530570983887 38.53606414794922 10.56845664978027 39.06015014648438 10.47395896911621 39.77925872802734 C 10.36336898803711 40.62093734741211 10.26650905609131 41.45458984375 10.16396903991699 42.33718872070312 C 10.12475872039795 42.67472076416016 10.08489894866943 43.01779937744141 10.04341888427734 43.36845779418945 L 10.00699901580811 43.67636871337891 L 10.13003349304199 43.91063690185547 Z" stroke="none"/>
      <path d="M 8.360237121582031 4.252197265625 C 6.076618194580078 4.252197265625 4.218757629394531 6.110057830810547 4.218757629394531 8.393680572509766 L 4.218757629394531 45.86516952514648 C 4.218757629394531 48.14879989624023 6.076618194580078 50.00666046142578 8.360237121582031 50.00666046142578 L 46.07673645019531 50.00666046142578 C 48.3607177734375 50.00666046142578 50.21886825561523 48.14879989624023 50.21886825561523 45.86516952514648 L 50.21886825561523 8.394317626953125 C 50.21886825561523 7.287818908691406 49.78805923461914 6.247589111328125 49.00579071044922 5.465259552001953 C 48.22358703613281 4.683010101318359 47.18359756469727 4.252197265625 46.07738876342773 4.252197265625 L 8.360237121582031 4.252197265625 M 36.89452743530273 23.0675106048584 L 37.29851913452148 23.04921913146973 C 37.3455696105957 23.04708862304688 37.38755035400391 23.04464912414551 37.42627716064453 23.04242897033691 C 37.52578735351562 23.03672981262207 37.63858795166016 23.03026962280273 37.76670837402344 23.03026962280273 L 39.0557975769043 23.02989959716797 C 41.14539337158203 23.02927398681641 43.23481750488281 23.02864265441895 45.32463836669922 23.03026962280273 C 47.14835739135742 23.03188896179199 48.37474822998047 24.26272964477539 48.37633895874023 26.09479904174805 L 48.37641906738281 27.31853866577148 C 48.37654876708984 28.53093910217285 48.37666702270508 29.74361801147461 48.37569808959961 30.95661926269531 C 48.37398910522461 32.72500610351562 47.14481735229492 33.96247863769531 45.38618850708008 33.96592712402344 C 44.39510726928711 33.96767425537109 43.40355682373047 33.96736907958984 42.43956756591797 33.96697998046875 C 42.48917388916016 34.04145050048828 42.53598022460938 34.11864471435547 42.57987976074219 34.19857025146484 C 42.95231628417969 34.87660980224609 43.30167007446289 35.56351852416992 43.6395263671875 36.22782897949219 L 43.7055778503418 36.35769653320312 C 43.85115051269531 36.64461898803711 43.91875839233398 36.90464019775391 43.955078125 37.04433822631836 L 43.95841979980469 37.05710220336914 L 44.06278991699219 37.38172912597656 L 44.04858016967773 37.63980102539062 C 44.6848258972168 37.97001647949219 45.20542144775391 38.51347351074219 45.53805923461914 39.22329711914062 C 45.89680862426758 39.98806762695312 46.13307952880859 40.75140762329102 46.24050903320312 41.4934196472168 C 46.33902740478516 42.17715835571289 46.36177825927734 42.82611083984375 46.3837890625 43.45369720458984 C 46.39231872558594 43.69696044921875 46.40036773681641 43.92671966552734 46.41264724731445 44.15158081054688 L 46.607177734375 47.71535873413086 L 43.46603775024414 46.02079010009766 C 43.31374740600586 45.93862915039062 43.16965866088867 45.86029815673828 43.03118896484375 45.78500747680664 C 42.70718765258789 45.60886001586914 42.4273796081543 45.45673751831055 42.14727020263672 45.31259918212891 C 42.00679779052734 45.24022674560547 41.85292053222656 45.16743850708008 41.68999862670898 45.09037780761719 C 41.38423919677734 44.94573974609375 41.03768920898438 44.78181838989258 40.69120025634766 44.57723999023438 C 39.74465942382812 44.02019882202148 39.04056930541992 43.17231750488281 38.65507888793945 42.12535858154297 C 38.48690795898438 41.66869735717773 38.41738891601562 41.19983291625977 38.43751525878906 40.74391937255859 C 38.13694000244141 40.53088760375977 37.87177276611328 40.25726318359375 37.65489959716797 39.93010711669922 C 37.16139984130859 39.18582916259766 36.68115997314453 38.43032073974609 36.22676849365234 37.683349609375 C 35.90632247924805 37.15570831298828 35.75837707519531 36.57237243652344 35.79269409179688 35.99671173095703 C 35.11478424072266 35.71863555908203 34.56369781494141 35.22895431518555 34.19865798950195 34.56782913208008 C 34.08454132080078 34.36116790771484 33.96927642822266 34.15701293945312 33.84918212890625 33.94512939453125 L 22.02225494384766 33.94512939453125 C 20.7772102355957 36.10430145263672 19.532470703125 38.26306533813477 18.28860855102539 40.42091751098633 C 17.94157791137695 41.02453994750977 17.45203018188477 41.46077346801758 16.8604621887207 41.70631408691406 C 16.74414825439453 42.36084747314453 16.35773849487305 42.95882415771484 15.77142715454102 43.36577987670898 C 14.85511016845703 44.00177764892578 13.86481857299805 44.67089080810547 12.74417877197266 45.41121673583984 C 12.34063720703125 45.6778678894043 11.8290901184082 45.830810546875 11.3406867980957 45.830810546875 C 10.94832992553711 45.830810546875 10.56736755371094 45.73246002197266 10.23897933959961 45.54637908935547 L 10.22830963134766 45.54029083251953 C 9.582618713378906 45.16915893554688 9.319969177246094 44.58832550048828 9.216567993164062 44.32203674316406 L 8.977497100830078 43.86681747436523 L 9.050350189208984 43.25099945068359 C 9.091747283935547 42.90092849731445 9.131538391113281 42.55844116210938 9.170688629150391 42.22147750854492 C 9.273658752441406 41.33516693115234 9.370918273925781 40.49800872802734 9.482479095458984 39.64892959594727 C 9.585689544677734 38.86364364624023 10.00844955444336 38.20936584472656 10.60607147216797 37.81729888916016 C 10.60520553588867 37.30656814575195 10.74386978149414 36.7794189453125 11.03310775756836 36.27742004394531 C 11.47858428955078 35.50457763671875 11.92291641235352 34.73382568359375 12.36536026000977 33.9664421081543 C 12.05366134643555 33.9658203125 11.76214218139648 33.96567916870117 11.50444793701172 33.96567916870117 C 10.83724212646484 33.96567916870117 10.17006683349609 33.96673965454102 9.502967834472656 33.96673965454102 L 9.075237274169922 33.96657943725586 C 7.273277282714844 33.96316909790039 6.062587738037109 32.74808883666992 6.062587738037109 30.94457817077637 C 6.061347961425781 29.37851905822754 6.060569763183594 27.69685935974121 6.063240051269531 26.01147842407227 C 6.065029144287109 24.28914833068848 7.306167602539062 23.03645896911621 9.015079498291016 23.03286933898926 C 11.4246826171875 23.02866172790527 13.83470153808594 23.02998924255371 16.24398803710938 23.03134918212891 L 17.92080688476562 23.03221893310547 C 18.07966995239258 23.03221893310547 18.20132827758789 23.04897880554199 18.27401733398438 23.05898857116699 C 18.28730773925781 23.06081962585449 18.30391693115234 23.06315803527832 18.32590866088867 23.06578826904297 L 18.63228225708008 23.10231781005859 C 19.60991668701172 21.408203125 20.55177307128906 19.77634048461914 21.44511032104492 18.2286376953125 C 22.00540924072266 17.25822067260742 22.91671943664551 16.70166015625 23.94536781311035 16.70166015625 C 24.46213912963867 16.70166015625 24.97612953186035 16.84289932250977 25.47271919250488 17.12125778198242 C 25.75119209289551 17.27728652954102 26.0289192199707 17.43385314941406 26.30472564697266 17.59029006958008 C 25.87933349609375 16.58060455322266 25.44736862182617 15.54421997070312 25.00727844238281 14.47760772705078 C 24.71830940246582 13.77700805664062 24.52714920043945 13.08864974975586 24.34228897094727 12.42295074462891 C 24.27444839477539 12.17868041992188 24.21037864685059 11.94795989990234 24.14374923706055 11.72454833984375 C 24.04804801940918 11.40553665161133 24.02517509460449 11.12427520751953 24.0143928527832 10.98445892333984 L 24.00221824645996 10.8926887512207 L 24.00221824645996 10.76058959960938 C 24.00221824645996 10.75131988525391 24.00149917602539 10.73748016357422 24.00011825561523 10.71176910400391 C 23.99127769470215 10.54710388183594 23.97062301635742 10.16244506835938 24.14421653747559 9.717735290527344 C 24.14869117736816 9.705623626708984 24.15299224853516 9.693061828613281 24.15743827819824 9.680419921875 C 24.25912857055664 9.391269683837891 24.49727821350098 8.714130401611328 25.22843933105469 8.285648345947266 C 25.54901885986328 8.098648071289062 25.91873931884766 7.999797821044922 26.2976188659668 7.999797821044922 C 26.95671844482422 7.999797821044922 27.652587890625 8.303539276123047 28.11366844177246 8.79248046875 L 28.16702842712402 8.849437713623047 C 28.51739883422852 9.223487854003906 28.91451835632324 9.647438049316406 29.25348854064941 10.18413925170898 C 29.75910949707031 10.98561859130859 30.25558853149414 11.80183029174805 30.7357177734375 12.59115982055664 C 31.11979866027832 13.22257995605469 31.51694869995117 13.87548828125 31.91162872314453 14.50885772705078 C 33.66159057617188 17.31733703613281 35.31610107421875 20.19821548461914 36.89452743530273 23.0675106048584 M 28.50335311889648 22.70401954650879 C 28.4403247833252 22.81337928771973 28.37749862670898 22.92238616943359 28.31446647644043 23.03174591064453 C 28.42532157897949 23.03162002563477 28.53622055053711 23.03100776672363 28.64708518981934 23.0306224822998 C 28.59916877746582 22.92190361022949 28.55138397216797 22.81332206726074 28.50335311889648 22.70401954650879 M 8.360237121582031 2.252197265625 L 46.07738876342773 2.252197265625 C 49.46917724609375 2.252197265625 52.21887969970703 5.001888275146484 52.21886825561523 8.394329071044922 L 52.21886825561523 45.86516952514648 C 52.21886825561523 49.2569580078125 49.46852874755859 52.00666046142578 46.07673645019531 52.00666046142578 L 8.360237121582031 52.00666046142578 C 4.968448638916016 52.00666046142578 2.218757629394531 49.2569580078125 2.218757629394531 45.86516952514648 L 2.218757629394531 8.393680572509766 C 2.218757629394531 5.001888275146484 4.968448638916016 2.252197265625 8.360237121582031 2.252197265625 Z M 37.21093368530273 34.26321411132812 C 37.92259979248047 34.26321411132812 38.49938201904297 33.88973999023438 39.01696014404297 33.41973114013672 C 39.56806945800781 32.91865921020508 39.6148681640625 32.41889953613281 39.27106857299805 31.76250839233398 C 36.39920043945312 26.28130912780762 33.48899078369141 20.82221984863281 30.21417808532715 15.5665397644043 C 29.32121849060059 14.13352966308594 28.46270942687988 12.67906951904297 27.56195831298828 11.25124740600586 C 27.31239891052246 10.85611724853516 26.98029899597168 10.50841903686523 26.65860939025879 10.16462707519531 C 26.561767578125 10.06195068359375 26.32196617126465 9.963169097900391 26.23617935180664 10.01321029663086 C 26.11529922485352 10.08404922485352 26.06785774230957 10.29200744628906 26.00611877441406 10.44799041748047 C 25.98206901550293 10.50907897949219 26.00221824645996 10.58835983276367 26.00221824645996 10.76058959960938 C 26.01066780090332 10.82427978515625 26.01261901855469 10.99390029907227 26.05940818786621 11.14986801147461 C 26.31545829772949 12.00837707519531 26.51627922058105 12.89093017578125 26.85617828369141 13.71500015258789 C 29.25557899475098 19.53022766113281 31.76546859741211 25.29802894592285 34.50801086425781 30.96053886413574 C 34.94474792480469 31.8619384765625 35.46464920043945 32.72304916381836 35.94947052001953 33.60105133056641 C 36.15938949584961 33.98123931884766 36.4992790222168 34.18465805053711 36.91780853271484 34.24248886108398 C 37.01807403564453 34.25653076171875 37.11568450927734 34.26321411132812 37.21093368530273 34.26321411132812 Z M 15.65163421630859 39.93755722045898 C 16.11972427368164 39.93755722045898 16.3719596862793 39.74200439453125 16.55472946166992 39.42408752441406 C 20.01735687255859 33.41712951660156 23.4819278717041 27.41147804260254 26.94390869140625 21.4045295715332 C 27.27145957946777 20.83652877807617 27.14992904663086 20.38224792480469 26.58906936645508 20.05794906616211 C 25.8936882019043 19.65565872192383 25.19569778442383 19.25857925415039 24.49511909484863 18.86605072021484 C 23.94790840148926 18.55929946899414 23.49232864379883 18.68278121948242 23.17712783813477 19.22867965698242 C 19.70541000366211 25.24343872070312 16.23432922363281 31.25884819030762 12.7658576965332 37.27619934082031 C 12.4610595703125 37.80520629882812 12.58388900756836 38.26467895507812 13.10770034790039 38.57012939453125 C 13.82192993164062 38.98670959472656 14.54006958007812 39.39614105224609 15.26210021972656 39.79907989501953 C 15.40246963500977 39.87705993652344 15.56689834594727 39.91215896606445 15.63772964477539 39.9375 C 15.64238739013672 39.93753814697266 15.64701843261719 39.93755722045898 15.65163421630859 39.93755722045898 Z M 28.27572822570801 25.03177070617676 C 28.08378028869629 25.03177070617676 27.89192199707031 25.03008842468262 27.70037841796875 25.02312850952148 C 27.42093658447266 25.01274681091309 27.26105880737305 25.09656143188477 27.11677932739258 25.35001945495605 C 25.92487907409668 27.44331932067871 24.71607780456543 29.5262279510498 23.51312828063965 31.61302947998047 C 23.4559383392334 31.71246910095215 23.40459823608398 31.81514930725098 23.33505821228027 31.94512939453125 C 26.51497840881348 31.94512939453125 29.65785789489746 31.94512939453125 32.80204010009766 31.94512939453125 C 32.80204010009766 31.90157890319824 32.80918884277344 31.87558937072754 32.80073928833008 31.85673904418945 C 31.76675796508789 29.64385795593262 30.73342895507812 27.43031883239746 29.68774795532227 25.22328948974609 C 29.64355850219727 25.12905883789062 29.47783851623535 25.04196929931641 29.36604881286621 25.0380687713623 C 29.00323677062988 25.02573013305664 28.63931465148926 25.03177070617676 28.27572822570801 25.03177070617676 Z M 43.62094879150391 31.96727752685547 C 44.20436859130859 31.96727752685547 44.79363250732422 31.96696472167969 45.38265991210938 31.96592903137207 C 46.04684829711914 31.96462821960449 46.37504959106445 31.62862968444824 46.37569808959961 30.95468902587891 C 46.37699890136719 29.33450889587402 46.37633895874023 27.71432876586914 46.37633895874023 26.09479904174805 C 46.37569808959961 25.3591194152832 46.05333709716797 25.03091812133789 45.32286071777344 25.03026962280273 C 42.80453872680664 25.02831268310547 40.28554534912109 25.02962112426758 37.76721954345703 25.03026962280273 C 37.65673828125 25.03026962280273 37.54689788818359 25.04001808166504 37.38897705078125 25.04716873168945 C 38.61338043212891 27.36663818359375 39.8072395324707 29.62890815734863 41.04072952270508 31.96656799316406 C 41.87459564208984 31.96656799316406 42.74121856689453 31.96727752685547 43.62094879150391 31.96727752685547 Z M 13.80452346801758 31.97310256958008 C 14.04525375366211 31.97310256958008 14.17298126220703 31.89133644104004 14.29115676879883 31.68451881408691 C 15.49411010742188 29.58341979980469 16.70680999755859 27.48816871643066 17.916259765625 25.39095878601074 C 17.9727897644043 25.2928295135498 18.01958847045898 25.18949890136719 18.08913040161133 25.05171966552734 C 17.99099731445312 25.04001808166504 17.95589828491211 25.03221893310547 17.92080688476562 25.03221893310547 C 14.95339584350586 25.03091621398926 11.98598861694336 25.02767753601074 9.018577575683594 25.03286933898926 C 8.399879455566406 25.0341682434082 8.063888549804688 25.38900947570801 8.063240051269531 26.01355934143066 C 8.060638427734375 27.6564884185791 8.061286926269531 29.29940795898438 8.062587738037109 30.9429988861084 C 8.062587738037109 31.63837814331055 8.386238098144531 31.96526908874512 9.079017639160156 31.96657943725586 C 9.887451171875 31.96724700927734 10.69588470458984 31.96567726135254 11.50445175170898 31.96567726135254 C 12.26829528808594 31.96567726135254 13.03224945068359 31.96707344055176 13.79594039916992 31.97306823730469 C 13.79882431030273 31.97309112548828 13.80167007446289 31.97310256958008 13.80452346801758 31.97310256958008 Z M 40.1063117980957 39.27198028564453 C 40.27711868286133 39.27198028564453 40.45515441894531 39.22475051879883 40.62934875488281 39.1290397644043 C 40.94974899291992 38.95291900634766 41.26234817504883 38.76314926147461 41.57168960571289 38.56818008422852 C 41.88623809814453 38.36996841430664 42.02205657958984 38.06645965576172 42.04545974731445 37.64142608642578 C 42.01620864868164 37.55044937133789 41.98957061767578 37.39577865600586 41.92197799682617 37.26255035400391 C 41.56389999389648 36.55870819091797 41.20709991455078 35.85357666015625 40.82691955566406 35.16143798828125 C 40.56240844726562 34.67987823486328 40.04703521728516 34.5323486328125 39.546630859375 34.77410888671875 C 39.12224960327148 34.97882080078125 38.70241928100586 35.19523620605469 38.28778839111328 35.41944885253906 C 37.79256820678711 35.68785858154297 37.64569854736328 36.16682815551758 37.93619918823242 36.64514923095703 C 38.38331604003906 37.38018035888672 38.84603881835938 38.10739898681641 39.32176971435547 38.82487869262695 C 39.51776504516602 39.12054443359375 39.80045318603516 39.27198028564453 40.1063117980957 39.27198028564453 Z M 44.41561889648438 44.26058959960938 C 44.37078094482422 43.43912887573242 44.37921905517578 42.59945678710938 44.26094818115234 41.77864837646484 C 44.17646026611328 41.19504928588867 43.97888946533203 40.60884094238281 43.72737884521484 40.07267761230469 C 43.45571899414062 39.49298095703125 42.92345428466797 39.18883895874023 42.26966857910156 39.29735946655273 C 41.87063980102539 39.3636474609375 41.46511077880859 39.50791931152344 41.11286926269531 39.70613861083984 C 40.50457000732422 40.04798889160156 40.28749847412109 40.77066040039062 40.5318603515625 41.43420791625977 C 40.75606918334961 42.04314804077148 41.15121841430664 42.52732849121094 41.70556640625 42.85355758666992 C 42.14035034179688 43.11026763916016 42.61281967163086 43.30263900756836 43.06318664550781 43.53464889526367 C 43.48756790161133 43.75302886962891 43.90480804443359 43.98501968383789 44.41561889648438 44.26058959960938 Z M 11.3406867980957 43.830810546875 C 11.44158172607422 43.830810546875 11.56472015380859 43.79339218139648 11.64154815673828 43.74261856079102 C 12.64497756958008 43.07972717285156 13.64321899414062 42.40839004516602 14.63105010986328 41.72275924682617 C 14.99433898925781 41.47060012817383 14.98458862304688 41.0813102722168 14.61024856567383 40.85644912719727 C 13.83102798461914 40.39112854003906 13.04335784912109 39.94010925292969 12.24594879150391 39.50662994384766 C 11.86576461791992 39.30061721801758 11.52196884155273 39.47932815551758 11.46541976928711 39.90956115722656 C 11.31334686279297 41.0670166015625 11.18531799316406 42.22772979736328 11.0364990234375 43.48591995239258 C 11.07028961181641 43.55025863647461 11.11188888549805 43.74131774902344 11.22496032714844 43.80630874633789 C 11.25505065917969 43.82335662841797 11.2956428527832 43.830810546875 11.3406867980957 43.830810546875 Z" stroke="none" fill="#00b26b"/>
    </g>
  </g>
</svg>
