<svg xmlns="http://www.w3.org/2000/svg" width="440.002" height="278.972" viewBox="0 0 440.002 278.972">
  <g id="noun-bicycle-7794162" transform="translate(-67.369 -25.727)">
    <path id="Path_52" data-name="Path 52" d="M144.889,166.025h-110a8.975,8.975,0,0,1-7.431-14.008l75.2-111.394a8.964,8.964,0,0,1,7.453-3.951H242a8.988,8.988,0,0,1,7.386,14.1l-66.222,95.411a8.989,8.989,0,0,1-12.347,2.357,11.983,11.983,0,0,0-6.533-2.133,10.628,10.628,0,0,0-10.394,10.708,9.05,9.05,0,0,1-9.025,8.935Zm-93.1-17.959h85.532a28.632,28.632,0,0,1,6.847-11.269,28.178,28.178,0,0,1,28.511-7.071l52.127-75.09H114.9L51.815,148.093Z" transform="translate(123.087 51.955)" fill="#00b26b" fill-rule="evenodd"/>
    <path id="Path_53" data-name="Path 53" d="M57.076,61.809h-3.5a8.985,8.985,0,0,1-6.892-3.21L35.188,44.837A8.974,8.974,0,1,1,48.972,33.343l8.823,10.551H95.15a8.968,8.968,0,1,1,0,17.937H77.864l5.994,10.394a8.991,8.991,0,0,1-15.58,8.98L57.121,61.853Z" transform="translate(157.154 20.917)" fill="#00b26b" fill-rule="evenodd"/>
    <path id="Path_54" data-name="Path 54" d="M140.1,217.687,73.133,66.921a9,9,0,0,1,8.1-12.841h28.892a5.226,5.226,0,0,0,5.051-5.343,5.088,5.088,0,0,0-5.051-5.051H65.523a8.98,8.98,0,1,1,0-17.959h44.606a23.145,23.145,0,0,1,0,46.29H95.043L156.507,210.37a8.975,8.975,0,1,1-16.41,7.274Z" transform="translate(268.41)" fill="#00b26b" fill-rule="evenodd"/>
    <path id="Path_55" data-name="Path 55" d="M147.612,224.239a90.724,90.724,0,1,0,.02-.02Zm0-163.588a73.042,73.042,0,0,0-72.958,72.958c0,40.184,32.843,72.688,72.958,72.688A72.782,72.782,0,0,0,220.3,133.609C220.3,93.492,187.794,60.651,147.612,60.651Z" transform="translate(269.113 80.441)" fill="#00b26b" fill-rule="evenodd"/>
    <path id="Path_56" data-name="Path 56" d="M102.348,224.222A90.767,90.767,0,0,1,38.235,69.346a89.869,89.869,0,0,1,64.136-26.669,91.025,91.025,0,0,1,90.917,90.917,90.787,90.787,0,0,1-90.921,90.649Zm0-163.588c-40.184,0-72.688,32.843-72.688,72.958a72.782,72.782,0,0,0,72.688,72.688c40.117,0,72.958-32.506,72.958-72.688A73.042,73.042,0,0,0,102.348,60.635Z" transform="translate(55.647 80.457)" fill="#00b26b" fill-rule="evenodd"/>
    <path id="Path_57" data-name="Path 57" d="M72.423,107.469A27.573,27.573,0,0,1,53.05,60.46a27.025,27.025,0,0,1,19.374-8.081,27.592,27.592,0,0,1,27.7,27.7,27.117,27.117,0,0,1-8.081,19.374,27.639,27.639,0,0,1-19.621,8.014Z" transform="translate(213.782 126.517)" fill="#00b26b" fill-rule="evenodd"/>
    <path id="Path_58" data-name="Path 58" d="M63.522,102.331V65.85a8.98,8.98,0,0,1,17.959,0v36.48h9.833a8.98,8.98,0,0,1,0,17.959H54a8.98,8.98,0,0,1,0-17.959h9.541Z" transform="translate(213.724 147.839)" fill="#00b26b" fill-rule="evenodd"/>
    <path id="Path_59" data-name="Path 59" d="M51.134,53.469A28.769,28.769,0,1,0,80.048,82.383v-.561H51.134a4.487,4.487,0,0,1-3.7-7L60.7,55.152a29.276,29.276,0,0,0-9.564-1.661Z" transform="translate(106.862 131.691)" fill="#00b26b" fill-rule="evenodd"/>
    <path id="Path_60" data-name="Path 60" d="M96.395,53.469a28.769,28.769,0,1,0,0,57.537,28.769,28.769,0,0,0,0-57.537Z" transform="translate(320.33 131.691)" fill="#00b26b" fill-rule="evenodd"/>
  </g>
</svg>
