<svg xmlns="http://www.w3.org/2000/svg" xmlns:xlink="http://www.w3.org/1999/xlink" version="1.1" x="0px" y="0px" viewBox="0 0 90 62.5" enable-background="new 0 0 90 50" xml:space="preserve"><path fill="#000000" d="M73.346,10.619c0,0-10.149-4.713-12.19-4.74v5.958h13.302C74.457,11.837,74.643,11.069,73.346,10.619z"/><rect x="55.676" y="16.532" fill="#000000" width="3.862" height="18.743"/><rect x="55.676" y="36.462" fill="#000000" width="3.862" height="6.135"/><path fill="#000000" d="M69.352,36.749c-3.118,0-5.646,2.521-5.646,5.647c0,3.114,2.528,5.641,5.646,5.641  c3.12,0,5.649-2.526,5.649-5.641C75.001,39.271,72.472,36.749,69.352,36.749z M69.352,45.34c-1.625,0.003-2.943-1.316-2.943-2.943  c0-1.632,1.315-2.95,2.943-2.95c1.63,0,2.946,1.318,2.946,2.95C72.298,44.024,70.981,45.34,69.352,45.34z"/><path fill="#000000" d="M85.149,38.224v-7.838l-7.154-15.333c0,0-1.362-2.5-3.748-2.5H61.155v23.739v6.306h1.569  c-0.005-0.109-0.017-0.219-0.017-0.33c0-3.613,2.932-6.544,6.545-6.544c3.616,0,6.546,2.931,6.546,6.544  c0,0.111-0.014,0.221-0.02,0.33h9.908c0,0,0.682,0.083,0.682-0.938v-2.725C86.37,38.934,86.487,38.276,85.149,38.224z   M68.062,28.383h-2.1v-0.809h2.1V28.383z M72.369,23.685h-8.062v-8.971h11.867l6.927,14.652h-5.112L72.369,23.685z M84.029,37.316  h-2.13v-5.111h2.13V37.316z"/><path fill="#000000" d="M22.822,36.749c-3.12,0-5.648,2.521-5.648,5.647c0,3.114,2.528,5.641,5.648,5.641  c3.12,0,5.648-2.526,5.648-5.641C28.47,39.271,25.942,36.749,22.822,36.749z M22.822,45.34c-1.626,0.003-2.945-1.316-2.945-2.943  c0-1.632,1.315-2.95,2.945-2.95c1.631,0,2.945,1.318,2.945,2.95C25.767,44.024,24.453,45.34,22.822,45.34z"/><polygon fill="#000000" points="42.615,36.462 36.054,36.462 27.153,36.462 29.966,39.53 29.966,42.597 36.054,42.597   42.615,42.597 54.469,42.597 54.469,36.462 "/><polygon fill="#000000" points="14.073,36.462 12.143,36.462 8.549,36.462 8.549,42.597 12.143,42.597 14.073,42.597 15.462,42.597   15.462,39.53 18.274,36.462 "/><rect x="3.609" y="5.879" fill="#000000" width="50.859" height="29.396"/><rect x="3.609" y="36.462" fill="#000000" width="3.767" height="6.135"/><text x="0" y="65" fill="#000000" font-size="5px" font-weight="bold" font-family="'Helvetica Neue', Helvetica, Arial-Unicode, Arial, Sans-serif">Created by Jonathan Li</text><text x="0" y="70" fill="#000000" font-size="5px" font-weight="bold" font-family="'Helvetica Neue', Helvetica, Arial-Unicode, Arial, Sans-serif">from the Noun Project</text></svg>