<svg xmlns="http://www.w3.org/2000/svg" width="269.457" height="423.726" viewBox="0 0 269.457 423.726">
  <g id="Pod_Red_Filled_Icon" data-name="Pod Red Filled Icon" transform="translate(1488.378 -431.893)">
    <path id="Subtraction_2" data-name="Subtraction 2" d="M-4808.738,204.38c-1.727,0-5.97-.907-7.012-2.1-1.128-1.286-3.543-5.332-3.376-8.975a19.462,19.462,0,0,1,1.07-5.846l-.014-.012c-.438-.391-4.285-3.843-4.516-4.764a9.273,9.273,0,0,1,0-2.717l-9.3-4.447-1.477-1.23a.087.087,0,0,1,.016.084c-.025.059-.151.13-.607.13a15.583,15.583,0,0,1-2.133-.219c-.973-.15-1.782-.216-2.5-.274-1.609-.13-2.58-.209-3.268-1.127a5.481,5.481,0,0,1-.9-3.129l-70.568-32.2v.008c-.133.477-1.353,4.716-3.21,6.5a20.474,20.474,0,0,1-6.67,4.035,5.776,5.776,0,0,1-1.136.1c-.9,0-3.977-.161-5.534-2.236a14.119,14.119,0,0,1-2.089-4.231,7.7,7.7,0,0,1-.3-4.169,13.577,13.577,0,0,0,.576-4.035c-.17-.168-4.117-4.068-4.117-5.022,0-.972-7.744-4.412-7.822-4.447l18-215.381-4.175-.556,8.628-70,1.67-13.5,21.432-15.865,114.942-28.109,94.487,38.685,14.474,32.841-.195,244.957-27.261,19.841.412,1.234c.02.02,1.979,2.081,2.14,3.376a37.212,37.212,0,0,1,0,7.988c-.491,2.365-1.225,5.269-2.551,6.752a5.863,5.863,0,0,1-4.278,2.244c-.139,0-.279-.007-.417-.021-1.689-.169-4.215-1.177-4.94-2.223s-1.4-5.562-1.317-6.34c.082-.732,0-2.862,0-2.882l-1.729-1.73-47.017,32.113-18.937,2.141-10.623,7v0c-.085.314-2.1,7.714-3.293,9.465a40.578,40.578,0,0,1-4.033,4.528v.014c.04.732.363,7.229-.413,9.786s-2.847,8.7-5.434,10.868c-.613.515-1.121.954-1.491,1.275-1.329,1.151-1.826,1.582-2.708,1.772A2.409,2.409,0,0,1-4808.738,204.38Zm-25.1-32.4a.048.048,0,0,0-.026.006c-.015.01-.022.019-.02.027.007.024.09.038.252.043.312.162.875.551,1.527,1,1.223.844,2.741,1.892,3.264,1.892.923,0,6.329-.589,9.222-1.071a99.326,99.326,0,0,0,13.093-3.87c1.957-.852,16.131-8.555,18.114-10.458,2.048-1.962,11.408-12.412,14-15.974a112.281,112.281,0,0,0,7.659-12.351c1.2-2.479,8.483-19.955,9.552-28.49,1.083-8.68,1.895-28.481,1.4-34.172-.519-5.968-1.145-16.992-.907-20.009.061-.763.127-1.978.2-3.384l.005-.1c.236-4.357.593-10.941,1.273-13.724,1.02-4.173,5.868-15.677,7.329-19.1.714-1.674,1.371-3.282,2.005-4.837l.025-.062a80.531,80.531,0,0,1,4.063-9.016c1.89-3.286,9.939-20.671,10.869-23.715,1.4-4.6,4.762-15.7,5.6-19.433.087-.387.191-.834.32-1.386,1.131-4.842,3.485-14.918,2.892-24.057-.671-10.322-1.846-24.795-4.282-31.29-2.559-6.819-6.625-16.129-7.824-18.362a8.81,8.81,0,0,1-1.233-2.964,3.07,3.07,0,0,0,1.233-3.294c-.623-1.872-5.233-9.429-5.757-10.284l-.005-.009c-.434-.484-10.636-11.861-11.28-12.021a.3.3,0,0,1-.188-.152c-.307-.532.168-2.246.188-2.318-.026-.036-2.745-3.545-4.611-3.789a2.639,2.639,0,0,0-.338-.023,1.4,1.4,0,0,0-1.056.4,1.788,1.788,0,0,0-.417,1.191l-11.362-4.2c-.253-.084-6.218-2.062-7.662-2.062l-.08,0c-.388.025-1.066.037-2.015.037-1.625,0-3.482-.037-3.5-.037a12.7,12.7,0,0,0-2.532,1.771c-1.108,1.015-2.339,2.617-1.914,4.489a13.778,13.778,0,0,1,.26,3.263c-.013,1.961-.022,3.377,2.293,3.983,3.421.9,16.35,4.17,16.468,4.2.357.161,8.712,3.927,10.951,5.846,2.4,2.059,10.3,8.9,11.115,10.54a11.256,11.256,0,0,1,.529,1.307l0,.014a3.748,3.748,0,0,0,2.184,2.713,16.278,16.278,0,0,0,4.776.906l3.95,6.423c.2.554,4.967,13.59,6.011,17.126.532,1.8,1.5,8.917,2.214,16.211.4,4.158,1.28,14.175.668,17.384-.143.75-.332,1.794-.572,3.115l-.044.244v.006c-1.374,7.569-4.232,23.318-6.463,29.242-1.784,4.738-6.092,14.253-9.553,21.9-1.66,3.666-3.093,6.833-3.951,8.815-.618,1.429-1.507,3.418-2.449,5.523-3.252,7.272-7.706,17.23-8.339,20.333-.859,4.212-2.963,20.458-2.963,24.372,0,1.553.18,4.387.389,7.668v.025c.325,5.11.73,11.463.68,16.352-.008.8-.014,1.707-.02,2.643-.059,9.021-.157,24.12-2.533,31.693a206.131,206.131,0,0,1-9.882,24.538c-1.961,3.847-10.73,14.18-14.409,18.444-2.121,2.461-11.811,9.737-13.175,10.458-1.425.755-12.244,5.864-19.184,7.9a55.3,55.3,0,0,1-14.051,1.977h-.114c-.04,0-.963.073-1.506.073l-.154,0A.569.569,0,0,0-4833.84,171.976Z" transform="translate(3455.249 651.239)" fill="#e84e4e"/>
  </g>
</svg>
