<svg xmlns="http://www.w3.org/2000/svg" width="269.503" height="423.725" viewBox="0 0 269.503 423.725">
  <g id="Pod_Filled_Icon" data-name="Pod Filled Icon" transform="translate(1488.378 -431.894)">
    <path id="Subtraction_1" data-name="Subtraction 1" d="M134.888,423.725c-1.727,0-5.971-.907-7.012-2.1-1.127-1.287-3.542-5.334-3.376-8.974a19.367,19.367,0,0,1,1.07-5.847l-.011-.009c-.438-.39-4.286-3.841-4.518-4.767a9.277,9.277,0,0,1,0-2.718l-9.3-4.446-1.478-1.23a.091.091,0,0,1,.017.084c-.025.06-.15.131-.608.131a15.553,15.553,0,0,1-2.131-.219c-.974-.15-1.782-.216-2.5-.273-1.608-.13-2.579-.209-3.267-1.127a5.5,5.5,0,0,1-.906-3.128L30.3,356.908v.01c-.133.478-1.356,4.718-3.21,6.5a20.462,20.462,0,0,1-6.669,4.035,5.781,5.781,0,0,1-1.135.095c-.9,0-3.979-.161-5.535-2.236a14.126,14.126,0,0,1-2.089-4.231,7.689,7.689,0,0,1-.3-4.168,13.786,13.786,0,0,0,.576-4.035c-.169-.166-4.118-4.064-4.118-5.023,0-.974-7.743-4.411-7.821-4.446L18,128.024l-4.175-.557,8.628-70,1.67-13.5L45.554,28.109,160.5,0l94.486,38.685,14.472,32.84-.194,244.958L242,336.323l.411,1.235c.02.02,1.98,2.08,2.142,3.376a37.312,37.312,0,0,1,0,7.988c-.493,2.366-1.228,5.271-2.552,6.751a5.863,5.863,0,0,1-4.28,2.245c-.138,0-.277-.007-.413-.02-1.69-.169-4.216-1.178-4.94-2.224s-1.4-5.564-1.317-6.34c.081-.735,0-2.862,0-2.883l-1.73-1.729L182.3,376.835l-18.936,2.141-10.623,7,0,.016c-.215.788-2.131,7.752-3.29,9.453a40.635,40.635,0,0,1-4.034,4.527v.008c.04.731.368,7.218-.411,9.792-.772,2.545-2.847,8.7-5.435,10.869-.618.519-1.143.974-1.49,1.275-1.329,1.152-1.826,1.583-2.709,1.773A2.413,2.413,0,0,1,134.888,423.725Zm-25.1-32.4a.046.046,0,0,0-.025.006c-.016.01-.022.02-.019.028.007.024.089.038.25.043.308.16.867.546,1.515.993l.009.007c1.223.844,2.744,1.894,3.267,1.894.926,0,6.333-.589,9.223-1.071a99.525,99.525,0,0,0,13.092-3.87c1.956-.851,16.128-8.553,18.115-10.458,2.047-1.962,11.408-12.41,14-15.973a112.3,112.3,0,0,0,7.658-12.352c1.2-2.477,8.483-19.947,9.552-28.49,1.084-8.678,1.895-28.478,1.4-34.171-.518-5.973-1.144-17-.906-20.008.061-.767.127-1.989.2-3.4l0-.082c.236-4.357.593-10.942,1.273-13.724,1.018-4.167,5.866-15.676,7.328-19.1.725-1.7,1.388-3.323,2.027-4.892a80.449,80.449,0,0,1,4.067-9.024c1.887-3.279,9.935-20.661,10.868-23.713,1.4-4.585,4.752-15.656,5.6-19.432.089-.4.2-.861.322-1.4,1.13-4.843,3.481-14.919,2.888-24.048-.67-10.319-1.844-24.789-4.282-31.29-2.548-6.794-6.617-16.112-7.823-18.362a8.8,8.8,0,0,1-1.234-2.966,3.1,3.1,0,0,0,1.234-3.293c-.623-1.871-5.233-9.428-5.756-10.284l-.006-.009c-.106-.118-10.628-11.857-11.282-12.021a.3.3,0,0,1-.189-.152c-.3-.519.137-2.133.188-2.315-.026-.037-2.734-3.547-4.61-3.792a2.665,2.665,0,0,0-.339-.023,1.4,1.4,0,0,0-1.057.4,1.814,1.814,0,0,0-.416,1.189l-11.362-4.2c-.254-.085-6.222-2.061-7.662-2.061l-.081,0c-.389.024-1.067.036-2.015.036-1.628,0-3.483-.036-3.5-.036a12.651,12.651,0,0,0-2.531,1.77c-1.108,1.014-2.34,2.616-1.915,4.488a13.78,13.78,0,0,1,.26,3.263c-.012,1.962-.021,3.378,2.294,3.984,3.414.894,16.35,4.168,16.469,4.2.354.159,8.7,3.917,10.95,5.847,2.4,2.057,10.294,8.9,11.117,10.539a11.387,11.387,0,0,1,.532,1.319,3.75,3.75,0,0,0,2.186,2.716,16.208,16.208,0,0,0,4.775.906l3.952,6.423.009.026c.508,1.391,4.995,13.692,6,17.1.532,1.8,1.5,8.916,2.214,16.21.4,4.158,1.279,14.175.669,17.384-.158.831-.384,2.077-.624,3.4-1.374,7.561-4.23,23.294-6.459,29.211-1.782,4.735-6.087,14.244-9.546,21.884-1.66,3.668-3.094,6.835-3.957,8.83-.61,1.409-1.46,3.31-2.443,5.511l-.005.012c-3.252,7.273-7.706,17.233-8.338,20.332-.859,4.215-2.963,20.463-2.963,24.374,0,1.562.181,4.4.39,7.686v.01c.325,5.1.729,11.457.679,16.347-.008.79-.014,1.691-.02,2.622-.058,9.026-.154,24.134-2.533,31.715a206.119,206.119,0,0,1-9.88,24.537c-1.875,3.675-9.833,13.134-14.411,18.446-2.125,2.46-11.812,9.735-13.174,10.456-1.425.755-12.243,5.863-19.185,7.9a55.248,55.248,0,0,1-14.046,1.977h-.116c-.1.008-.977.073-1.506.073l-.156,0A.577.577,0,0,0,109.786,391.322Z" transform="translate(-1488.378 431.894)"/>
    <path id="Path_351" data-name="Path 351" d="M-1465,491.168l72.707-13.5,55.4-31.087,6.48-14.163-114.771,27.553-21.41,16.088Z" transform="translate(2.229 0.053)"/>
    <path id="Path_352" data-name="Path 352" d="M-1391.424,473.623l-9.207,77.179-71.612,4.817,7.921-68.829Z" transform="translate(1.65 4.267)"/>
    <path id="Path_353" data-name="Path 353" d="M-1407.079,554.032h37.573l37.358-83.066-10.919-25.8-55.341,31.15Z" transform="translate(8.313 1.357)"/>
    <path id="Path_354" data-name="Path 354" d="M-1339.1,468.685l104.961,31.454" transform="translate(15.264 3.762)"/>
    <path id="Path_355" data-name="Path 355" d="M-1360.9,518.626l7.237,205.869,4.535,84.83" transform="translate(13.035 8.868)"/>
    <path id="Path_356" data-name="Path 356" d="M-1397.281,543.916l-38.595,230.044-44.808-19.621-2.478-1.855,17.09-204.236Z" transform="translate(-1.382 11.391)"/>
    <path id="Path_357" data-name="Path 357" d="M-1442.063,752.562l70.106,45.156" transform="translate(4.736 32.789)"/>
  </g>
</svg>
